<svg width="1280" height="320" viewBox="0 0 1280 320" fill="none" xmlns="http://www.w3.org/2000/svg">
<rect width="1280" height="320" fill="white"/>
<path d="M347.689 156.24C346.636 156.24 345.656 156.047 344.749 155.66C343.856 155.273 343.076 154.74 342.409 154.06C341.756 153.367 341.242 152.553 340.869 151.62C340.496 150.687 340.309 149.66 340.309 148.54C340.309 147.433 340.489 146.413 340.849 145.48C341.222 144.533 341.742 143.72 342.409 143.04C343.076 142.347 343.856 141.813 344.749 141.44C345.642 141.053 346.622 140.86 347.689 140.86C348.742 140.86 349.682 141.04 350.509 141.4C351.349 141.76 352.056 142.233 352.629 142.82C353.202 143.393 353.616 144.02 353.869 144.7L351.749 145.7C351.429 144.9 350.916 144.253 350.209 143.76C349.516 143.253 348.676 143 347.689 143C346.702 143 345.829 143.233 345.069 143.7C344.309 144.167 343.716 144.813 343.289 145.64C342.876 146.467 342.669 147.433 342.669 148.54C342.669 149.647 342.876 150.62 343.289 151.46C343.716 152.287 344.309 152.933 345.069 153.4C345.829 153.853 346.702 154.08 347.689 154.08C348.676 154.08 349.516 153.833 350.209 153.34C350.916 152.847 351.429 152.2 351.749 151.4L353.869 152.4C353.616 153.067 353.202 153.693 352.629 154.28C352.056 154.867 351.349 155.34 350.509 155.7C349.682 156.06 348.742 156.24 347.689 156.24ZM360.961 156.24C359.881 156.24 358.921 155.993 358.081 155.5C357.254 154.993 356.607 154.313 356.141 153.46C355.674 152.593 355.441 151.627 355.441 150.56C355.441 149.467 355.674 148.5 356.141 147.66C356.621 146.82 357.261 146.16 358.061 145.68C358.861 145.187 359.767 144.94 360.781 144.94C361.594 144.94 362.321 145.08 362.961 145.36C363.601 145.64 364.141 146.027 364.581 146.52C365.021 147 365.354 147.553 365.581 148.18C365.821 148.807 365.941 149.473 365.941 150.18C365.941 150.353 365.934 150.533 365.921 150.72C365.907 150.907 365.881 151.08 365.841 151.24H357.221V149.44H364.561L363.481 150.26C363.614 149.607 363.567 149.027 363.341 148.52C363.127 148 362.794 147.593 362.341 147.3C361.901 146.993 361.381 146.84 360.781 146.84C360.181 146.84 359.647 146.993 359.181 147.3C358.714 147.593 358.354 148.02 358.101 148.58C357.847 149.127 357.747 149.793 357.801 150.58C357.734 151.313 357.834 151.953 358.101 152.5C358.381 153.047 358.767 153.473 359.261 153.78C359.767 154.087 360.341 154.24 360.981 154.24C361.634 154.24 362.187 154.093 362.641 153.8C363.107 153.507 363.474 153.127 363.741 152.66L365.581 153.56C365.367 154.067 365.034 154.527 364.581 154.94C364.141 155.34 363.607 155.66 362.981 155.9C362.367 156.127 361.694 156.24 360.961 156.24ZM372.826 156.12C371.693 156.12 370.813 155.8 370.186 155.16C369.56 154.52 369.246 153.62 369.246 152.46V147.22H367.346V145.18H367.646C368.153 145.18 368.546 145.033 368.826 144.74C369.106 144.447 369.246 144.047 369.246 143.54V142.7H371.506V145.18H373.966V147.22H371.506V152.36C371.506 152.733 371.566 153.053 371.686 153.32C371.806 153.573 372 153.773 372.266 153.92C372.533 154.053 372.88 154.12 373.306 154.12C373.413 154.12 373.533 154.113 373.666 154.1C373.8 154.087 373.926 154.073 374.046 154.06V156C373.86 156.027 373.653 156.053 373.426 156.08C373.2 156.107 373 156.12 372.826 156.12ZM379.394 156.24C378.661 156.24 378.014 156.113 377.454 155.86C376.907 155.593 376.481 155.233 376.174 154.78C375.867 154.313 375.714 153.767 375.714 153.14C375.714 152.553 375.841 152.027 376.094 151.56C376.361 151.093 376.767 150.7 377.314 150.38C377.861 150.06 378.547 149.833 379.374 149.7L383.134 149.08V150.86L379.814 151.44C379.214 151.547 378.774 151.74 378.494 152.02C378.214 152.287 378.074 152.633 378.074 153.06C378.074 153.473 378.227 153.813 378.534 154.08C378.854 154.333 379.261 154.46 379.754 154.46C380.367 154.46 380.901 154.327 381.354 154.06C381.821 153.793 382.181 153.44 382.434 153C382.687 152.547 382.814 152.047 382.814 151.5V148.72C382.814 148.187 382.614 147.753 382.214 147.42C381.827 147.073 381.307 146.9 380.654 146.9C380.054 146.9 379.527 147.06 379.074 147.38C378.634 147.687 378.307 148.087 378.094 148.58L376.214 147.64C376.414 147.107 376.741 146.64 377.194 146.24C377.647 145.827 378.174 145.507 378.774 145.28C379.387 145.053 380.034 144.94 380.714 144.94C381.567 144.94 382.321 145.1 382.974 145.42C383.641 145.74 384.154 146.187 384.514 146.76C384.887 147.32 385.074 147.973 385.074 148.72V156H382.914V154.04L383.374 154.1C383.121 154.54 382.794 154.92 382.394 155.24C382.007 155.56 381.561 155.807 381.054 155.98C380.561 156.153 380.007 156.24 379.394 156.24ZM387.716 156V140.86H389.976V151L389.096 150.78L394.516 145.18H397.336L393.256 149.52L397.516 156H394.916L391.116 150.26L392.456 150.08L389.256 153.48L389.976 151.98V156H387.716ZM409.72 156.24C408.667 156.24 407.687 156.047 406.78 155.66C405.887 155.273 405.107 154.74 404.44 154.06C403.787 153.367 403.274 152.553 402.9 151.62C402.527 150.687 402.34 149.66 402.34 148.54C402.34 147.433 402.52 146.413 402.88 145.48C403.254 144.533 403.774 143.72 404.44 143.04C405.107 142.347 405.887 141.813 406.78 141.44C407.674 141.053 408.654 140.86 409.72 140.86C410.774 140.86 411.714 141.04 412.54 141.4C413.38 141.76 414.087 142.233 414.66 142.82C415.234 143.393 415.647 144.02 415.9 144.7L413.78 145.7C413.46 144.9 412.947 144.253 412.24 143.76C411.547 143.253 410.707 143 409.72 143C408.734 143 407.86 143.233 407.1 143.7C406.34 144.167 405.747 144.813 405.32 145.64C404.907 146.467 404.7 147.433 404.7 148.54C404.7 149.647 404.907 150.62 405.32 151.46C405.747 152.287 406.34 152.933 407.1 153.4C407.86 153.853 408.734 154.08 409.72 154.08C410.707 154.08 411.547 153.833 412.24 153.34C412.947 152.847 413.46 152.2 413.78 151.4L415.9 152.4C415.647 153.067 415.234 153.693 414.66 154.28C414.087 154.867 413.38 155.34 412.54 155.7C411.714 156.06 410.774 156.24 409.72 156.24ZM422.992 156.24C421.912 156.24 420.952 155.993 420.112 155.5C419.285 154.993 418.638 154.313 418.172 153.46C417.705 152.593 417.472 151.627 417.472 150.56C417.472 149.467 417.705 148.5 418.172 147.66C418.652 146.82 419.292 146.16 420.092 145.68C420.892 145.187 421.798 144.94 422.812 144.94C423.625 144.94 424.352 145.08 424.992 145.36C425.632 145.64 426.172 146.027 426.612 146.52C427.052 147 427.385 147.553 427.612 148.18C427.852 148.807 427.972 149.473 427.972 150.18C427.972 150.353 427.965 150.533 427.952 150.72C427.938 150.907 427.912 151.08 427.872 151.24H419.252V149.44H426.592L425.512 150.26C425.645 149.607 425.598 149.027 425.372 148.52C425.158 148 424.825 147.593 424.372 147.3C423.932 146.993 423.412 146.84 422.812 146.84C422.212 146.84 421.678 146.993 421.212 147.3C420.745 147.593 420.385 148.02 420.132 148.58C419.878 149.127 419.778 149.793 419.832 150.58C419.765 151.313 419.865 151.953 420.132 152.5C420.412 153.047 420.798 153.473 421.292 153.78C421.798 154.087 422.372 154.24 423.012 154.24C423.665 154.24 424.218 154.093 424.672 153.8C425.138 153.507 425.505 153.127 425.772 152.66L427.612 153.56C427.398 154.067 427.065 154.527 426.612 154.94C426.172 155.34 425.638 155.66 425.012 155.9C424.398 156.127 423.725 156.24 422.992 156.24ZM430.177 160V145.18H432.337V147.42L432.077 146.9C432.477 146.287 433.011 145.807 433.677 145.46C434.344 145.113 435.104 144.94 435.957 144.94C436.984 144.94 437.904 145.187 438.717 145.68C439.544 146.173 440.191 146.847 440.657 147.7C441.137 148.553 441.377 149.513 441.377 150.58C441.377 151.647 441.137 152.607 440.657 153.46C440.191 154.313 439.551 154.993 438.737 155.5C437.924 155.993 436.997 156.24 435.957 156.24C435.117 156.24 434.351 156.067 433.657 155.72C432.977 155.373 432.451 154.873 432.077 154.22L432.437 153.8V160H430.177ZM435.737 154.14C436.377 154.14 436.944 153.987 437.437 153.68C437.931 153.373 438.317 152.953 438.597 152.42C438.891 151.873 439.037 151.26 439.037 150.58C439.037 149.9 438.891 149.293 438.597 148.76C438.317 148.227 437.931 147.807 437.437 147.5C436.944 147.193 436.377 147.04 435.737 147.04C435.111 147.04 434.544 147.193 434.037 147.5C433.544 147.807 433.151 148.227 432.857 148.76C432.577 149.293 432.437 149.9 432.437 150.58C432.437 151.26 432.577 151.873 432.857 152.42C433.151 152.953 433.544 153.373 434.037 153.68C434.544 153.987 435.111 154.14 435.737 154.14ZM446.816 156.24C446.083 156.24 445.436 156.113 444.876 155.86C444.329 155.593 443.903 155.233 443.596 154.78C443.289 154.313 443.136 153.767 443.136 153.14C443.136 152.553 443.263 152.027 443.516 151.56C443.783 151.093 444.189 150.7 444.736 150.38C445.283 150.06 445.969 149.833 446.796 149.7L450.556 149.08V150.86L447.236 151.44C446.636 151.547 446.196 151.74 445.916 152.02C445.636 152.287 445.496 152.633 445.496 153.06C445.496 153.473 445.649 153.813 445.956 154.08C446.276 154.333 446.683 154.46 447.176 154.46C447.789 154.46 448.323 154.327 448.776 154.06C449.243 153.793 449.603 153.44 449.856 153C450.109 152.547 450.236 152.047 450.236 151.5V148.72C450.236 148.187 450.036 147.753 449.636 147.42C449.249 147.073 448.729 146.9 448.076 146.9C447.476 146.9 446.949 147.06 446.496 147.38C446.056 147.687 445.729 148.087 445.516 148.58L443.636 147.64C443.836 147.107 444.163 146.64 444.616 146.24C445.069 145.827 445.596 145.507 446.196 145.28C446.809 145.053 447.456 144.94 448.136 144.94C448.989 144.94 449.743 145.1 450.396 145.42C451.063 145.74 451.576 146.187 451.936 146.76C452.309 147.32 452.496 147.973 452.496 148.72V156H450.336V154.04L450.796 154.1C450.543 154.54 450.216 154.92 449.816 155.24C449.429 155.56 448.983 155.807 448.476 155.98C447.983 156.153 447.429 156.24 446.816 156.24ZM459.623 156.12C458.49 156.12 457.61 155.8 456.983 155.16C456.356 154.52 456.043 153.62 456.043 152.46V147.22H454.143V145.18H454.443C454.95 145.18 455.343 145.033 455.623 144.74C455.903 144.447 456.043 144.047 456.043 143.54V142.7H458.303V145.18H460.763V147.22H458.303V152.36C458.303 152.733 458.363 153.053 458.483 153.32C458.603 153.573 458.796 153.773 459.063 153.92C459.33 154.053 459.676 154.12 460.103 154.12C460.21 154.12 460.33 154.113 460.463 154.1C460.596 154.087 460.723 154.073 460.843 154.06V156C460.656 156.027 460.45 156.053 460.223 156.08C459.996 156.107 459.796 156.12 459.623 156.12ZM463.629 158.94V157.84C464.069 157.733 464.409 157.527 464.649 157.22C464.889 156.927 465.035 156.52 465.089 156H464.029V153.4H466.329V155.1C466.329 156.167 466.102 157.027 465.649 157.68C465.195 158.333 464.522 158.753 463.629 158.94ZM473.327 156V141.1H475.687V147.66H482.587V141.1H484.927V156H482.587V149.76H475.687V156H473.327ZM491.035 156.24C490.301 156.24 489.655 156.113 489.095 155.86C488.548 155.593 488.121 155.233 487.815 154.78C487.508 154.313 487.355 153.767 487.355 153.14C487.355 152.553 487.481 152.027 487.735 151.56C488.001 151.093 488.408 150.7 488.955 150.38C489.501 150.06 490.188 149.833 491.015 149.7L494.775 149.08V150.86L491.455 151.44C490.855 151.547 490.415 151.74 490.135 152.02C489.855 152.287 489.715 152.633 489.715 153.06C489.715 153.473 489.868 153.813 490.175 154.08C490.495 154.333 490.901 154.46 491.395 154.46C492.008 154.46 492.541 154.327 492.995 154.06C493.461 153.793 493.821 153.44 494.075 153C494.328 152.547 494.455 152.047 494.455 151.5V148.72C494.455 148.187 494.255 147.753 493.855 147.42C493.468 147.073 492.948 146.9 492.295 146.9C491.695 146.9 491.168 147.06 490.715 147.38C490.275 147.687 489.948 148.087 489.735 148.58L487.855 147.64C488.055 147.107 488.381 146.64 488.835 146.24C489.288 145.827 489.815 145.507 490.415 145.28C491.028 145.053 491.675 144.94 492.355 144.94C493.208 144.94 493.961 145.1 494.615 145.42C495.281 145.74 495.795 146.187 496.155 146.76C496.528 147.32 496.715 147.973 496.715 148.72V156H494.555V154.04L495.015 154.1C494.761 154.54 494.435 154.92 494.035 155.24C493.648 155.56 493.201 155.807 492.695 155.98C492.201 156.153 491.648 156.24 491.035 156.24ZM503.357 156.24C502.25 156.24 501.277 155.967 500.437 155.42C499.61 154.873 499.03 154.14 498.697 153.22L500.437 152.4C500.73 153.013 501.13 153.5 501.637 153.86C502.157 154.22 502.73 154.4 503.357 154.4C503.89 154.4 504.324 154.28 504.657 154.04C504.99 153.8 505.157 153.473 505.157 153.06C505.157 152.793 505.084 152.58 504.937 152.42C504.79 152.247 504.604 152.107 504.377 152C504.164 151.893 503.944 151.813 503.717 151.76L502.017 151.28C501.084 151.013 500.384 150.613 499.917 150.08C499.464 149.533 499.237 148.9 499.237 148.18C499.237 147.527 499.404 146.96 499.737 146.48C500.07 145.987 500.53 145.607 501.117 145.34C501.704 145.073 502.364 144.94 503.097 144.94C504.084 144.94 504.964 145.187 505.737 145.68C506.51 146.16 507.057 146.833 507.377 147.7L505.637 148.52C505.424 148 505.084 147.587 504.617 147.28C504.164 146.973 503.65 146.82 503.077 146.82C502.584 146.82 502.19 146.94 501.897 147.18C501.604 147.407 501.457 147.707 501.457 148.08C501.457 148.333 501.524 148.547 501.657 148.72C501.79 148.88 501.964 149.013 502.177 149.12C502.39 149.213 502.61 149.293 502.837 149.36L504.597 149.88C505.49 150.133 506.177 150.533 506.657 151.08C507.137 151.613 507.377 152.253 507.377 153C507.377 153.64 507.204 154.207 506.857 154.7C506.524 155.18 506.057 155.56 505.457 155.84C504.857 156.107 504.157 156.24 503.357 156.24ZM509.591 156V145.18H511.851V156H509.591ZM509.591 143.7V141.1H511.851V143.7H509.591ZM514.494 156V140.86H516.754V156H514.494ZM523.112 156V141.1H525.472V153.9H531.912V156H523.112ZM537.534 156.24C536.72 156.24 536.007 156.06 535.394 155.7C534.78 155.327 534.3 154.813 533.954 154.16C533.62 153.493 533.454 152.727 533.454 151.86V145.18H535.714V151.66C535.714 152.153 535.814 152.587 536.014 152.96C536.214 153.333 536.494 153.627 536.854 153.84C537.214 154.04 537.627 154.14 538.094 154.14C538.574 154.14 538.994 154.033 539.354 153.82C539.714 153.607 539.994 153.307 540.194 152.92C540.407 152.533 540.514 152.08 540.514 151.56V145.18H542.754V156H540.614V153.88L540.854 154.16C540.6 154.827 540.18 155.34 539.594 155.7C539.007 156.06 538.32 156.24 537.534 156.24ZM548.632 156.24C547.899 156.24 547.252 156.113 546.692 155.86C546.146 155.593 545.719 155.233 545.412 154.78C545.106 154.313 544.952 153.767 544.952 153.14C544.952 152.553 545.079 152.027 545.332 151.56C545.599 151.093 546.006 150.7 546.552 150.38C547.099 150.06 547.786 149.833 548.612 149.7L552.372 149.08V150.86L549.052 151.44C548.452 151.547 548.012 151.74 547.732 152.02C547.452 152.287 547.312 152.633 547.312 153.06C547.312 153.473 547.466 153.813 547.772 154.08C548.092 154.333 548.499 154.46 548.992 154.46C549.606 154.46 550.139 154.327 550.592 154.06C551.059 153.793 551.419 153.44 551.672 153C551.926 152.547 552.052 152.047 552.052 151.5V148.72C552.052 148.187 551.852 147.753 551.452 147.42C551.066 147.073 550.546 146.9 549.892 146.9C549.292 146.9 548.766 147.06 548.312 147.38C547.872 147.687 547.546 148.087 547.332 148.58L545.452 147.64C545.652 147.107 545.979 146.64 546.432 146.24C546.886 145.827 547.412 145.507 548.012 145.28C548.626 145.053 549.272 144.94 549.952 144.94C550.806 144.94 551.559 145.1 552.212 145.42C552.879 145.74 553.392 146.187 553.752 146.76C554.126 147.32 554.312 147.973 554.312 148.72V156H552.152V154.04L552.612 154.1C552.359 154.54 552.032 154.92 551.632 155.24C551.246 155.56 550.799 155.807 550.292 155.98C549.799 156.153 549.246 156.24 548.632 156.24ZM556.955 156V145.18H559.115V147.36L558.915 147.04C559.155 146.333 559.541 145.827 560.075 145.52C560.608 145.2 561.248 145.04 561.995 145.04H562.655V147.1H561.715C560.968 147.1 560.361 147.333 559.895 147.8C559.441 148.253 559.215 148.907 559.215 149.76V156H556.955ZM567.917 156V141.1H574.197C575.13 141.1 575.937 141.267 576.617 141.6C577.297 141.92 577.817 142.387 578.177 143C578.537 143.6 578.717 144.313 578.717 145.14C578.717 145.86 578.53 146.52 578.157 147.12C577.797 147.707 577.23 148.173 576.457 148.52V147.52C577.137 147.787 577.69 148.127 578.117 148.54C578.544 148.94 578.85 149.393 579.037 149.9C579.237 150.407 579.337 150.94 579.337 151.5C579.337 152.9 578.877 154 577.957 154.8C577.05 155.6 575.804 156 574.217 156H567.917ZM570.277 153.9H574.397C575.184 153.9 575.81 153.687 576.277 153.26C576.744 152.82 576.977 152.24 576.977 151.52C576.977 150.787 576.744 150.207 576.277 149.78C575.81 149.34 575.184 149.12 574.397 149.12H570.277V153.9ZM570.277 147.04H574.257C574.897 147.04 575.41 146.86 575.797 146.5C576.184 146.127 576.377 145.64 576.377 145.04C576.377 144.44 576.184 143.973 575.797 143.64C575.41 143.307 574.897 143.14 574.257 143.14H570.277V147.04ZM581.545 156V145.18H583.805V156H581.545ZM581.545 143.7V141.1H583.805V143.7H581.545ZM589.687 156.24C588.954 156.24 588.307 156.113 587.747 155.86C587.2 155.593 586.774 155.233 586.467 154.78C586.16 154.313 586.007 153.767 586.007 153.14C586.007 152.553 586.134 152.027 586.387 151.56C586.654 151.093 587.06 150.7 587.607 150.38C588.154 150.06 588.84 149.833 589.667 149.7L593.427 149.08V150.86L590.107 151.44C589.507 151.547 589.067 151.74 588.787 152.02C588.507 152.287 588.367 152.633 588.367 153.06C588.367 153.473 588.52 153.813 588.827 154.08C589.147 154.333 589.554 154.46 590.047 154.46C590.66 154.46 591.194 154.327 591.647 154.06C592.114 153.793 592.474 153.44 592.727 153C592.98 152.547 593.107 152.047 593.107 151.5V148.72C593.107 148.187 592.907 147.753 592.507 147.42C592.12 147.073 591.6 146.9 590.947 146.9C590.347 146.9 589.82 147.06 589.367 147.38C588.927 147.687 588.6 148.087 588.387 148.58L586.507 147.64C586.707 147.107 587.034 146.64 587.487 146.24C587.94 145.827 588.467 145.507 589.067 145.28C589.68 145.053 590.327 144.94 591.007 144.94C591.86 144.94 592.614 145.1 593.267 145.42C593.934 145.74 594.447 146.187 594.807 146.76C595.18 147.32 595.367 147.973 595.367 148.72V156H593.207V154.04L593.667 154.1C593.414 154.54 593.087 154.92 592.687 155.24C592.3 155.56 591.854 155.807 591.347 155.98C590.854 156.153 590.3 156.24 589.687 156.24ZM602.009 156.24C600.903 156.24 599.929 155.967 599.089 155.42C598.263 154.873 597.683 154.14 597.349 153.22L599.089 152.4C599.383 153.013 599.783 153.5 600.289 153.86C600.809 154.22 601.383 154.4 602.009 154.4C602.543 154.4 602.976 154.28 603.309 154.04C603.643 153.8 603.809 153.473 603.809 153.06C603.809 152.793 603.736 152.58 603.589 152.42C603.443 152.247 603.256 152.107 603.029 152C602.816 151.893 602.596 151.813 602.369 151.76L600.669 151.28C599.736 151.013 599.036 150.613 598.569 150.08C598.116 149.533 597.889 148.9 597.889 148.18C597.889 147.527 598.056 146.96 598.389 146.48C598.723 145.987 599.183 145.607 599.769 145.34C600.356 145.073 601.016 144.94 601.749 144.94C602.736 144.94 603.616 145.187 604.389 145.68C605.163 146.16 605.709 146.833 606.029 147.7L604.289 148.52C604.076 148 603.736 147.587 603.269 147.28C602.816 146.973 602.303 146.82 601.729 146.82C601.236 146.82 600.843 146.94 600.549 147.18C600.256 147.407 600.109 147.707 600.109 148.08C600.109 148.333 600.176 148.547 600.309 148.72C600.443 148.88 600.616 149.013 600.829 149.12C601.043 149.213 601.263 149.293 601.489 149.36L603.249 149.88C604.143 150.133 604.829 150.533 605.309 151.08C605.789 151.613 606.029 152.253 606.029 153C606.029 153.64 605.856 154.207 605.509 154.7C605.176 155.18 604.709 155.56 604.109 155.84C603.509 156.107 602.809 156.24 602.009 156.24ZM611.484 156.24C610.75 156.24 610.104 156.113 609.544 155.86C608.997 155.593 608.57 155.233 608.264 154.78C607.957 154.313 607.804 153.767 607.804 153.14C607.804 152.553 607.93 152.027 608.184 151.56C608.45 151.093 608.857 150.7 609.404 150.38C609.95 150.06 610.637 149.833 611.464 149.7L615.224 149.08V150.86L611.904 151.44C611.304 151.547 610.864 151.74 610.584 152.02C610.304 152.287 610.164 152.633 610.164 153.06C610.164 153.473 610.317 153.813 610.624 154.08C610.944 154.333 611.35 154.46 611.844 154.46C612.457 154.46 612.99 154.327 613.444 154.06C613.91 153.793 614.27 153.44 614.524 153C614.777 152.547 614.904 152.047 614.904 151.5V148.72C614.904 148.187 614.704 147.753 614.304 147.42C613.917 147.073 613.397 146.9 612.744 146.9C612.144 146.9 611.617 147.06 611.164 147.38C610.724 147.687 610.397 148.087 610.184 148.58L608.304 147.64C608.504 147.107 608.83 146.64 609.284 146.24C609.737 145.827 610.264 145.507 610.864 145.28C611.477 145.053 612.124 144.94 612.804 144.94C613.657 144.94 614.41 145.1 615.064 145.42C615.73 145.74 616.244 146.187 616.604 146.76C616.977 147.32 617.164 147.973 617.164 148.72V156H615.004V154.04L615.464 154.1C615.21 154.54 614.884 154.92 614.484 155.24C614.097 155.56 613.65 155.807 613.144 155.98C612.65 156.153 612.097 156.24 611.484 156.24ZM620.806 156V153.4H623.106V156H620.806ZM620.806 147.78V145.18H623.106V147.78H620.806ZM630.456 156V141.1H632.816V156H630.456ZM640.685 156.24C639.645 156.24 638.712 155.993 637.885 155.5C637.072 154.993 636.425 154.313 635.945 153.46C635.479 152.607 635.245 151.647 635.245 150.58C635.245 149.513 635.485 148.553 635.965 147.7C636.445 146.847 637.092 146.173 637.905 145.68C638.719 145.187 639.639 144.94 640.665 144.94C641.532 144.94 642.299 145.113 642.965 145.46C643.632 145.807 644.159 146.287 644.545 146.9L644.205 147.42V140.86H646.445V156H644.305V153.8L644.565 154.22C644.192 154.873 643.659 155.373 642.965 155.72C642.272 156.067 641.512 156.24 640.685 156.24ZM640.905 154.14C641.532 154.14 642.092 153.987 642.585 153.68C643.092 153.373 643.485 152.953 643.765 152.42C644.059 151.873 644.205 151.26 644.205 150.58C644.205 149.9 644.059 149.293 643.765 148.76C643.485 148.227 643.092 147.807 642.585 147.5C642.092 147.193 641.532 147.04 640.905 147.04C640.279 147.04 639.712 147.193 639.205 147.5C638.699 147.807 638.305 148.227 638.025 148.76C637.745 149.293 637.605 149.9 637.605 150.58C637.605 151.26 637.745 151.873 638.025 152.42C638.305 152.953 638.692 153.373 639.185 153.68C639.692 153.987 640.265 154.14 640.905 154.14ZM654.164 156.24C653.084 156.24 652.124 155.993 651.284 155.5C650.457 154.993 649.81 154.313 649.344 153.46C648.877 152.593 648.644 151.627 648.644 150.56C648.644 149.467 648.877 148.5 649.344 147.66C649.824 146.82 650.464 146.16 651.264 145.68C652.064 145.187 652.97 144.94 653.984 144.94C654.797 144.94 655.524 145.08 656.164 145.36C656.804 145.64 657.344 146.027 657.784 146.52C658.224 147 658.557 147.553 658.784 148.18C659.024 148.807 659.144 149.473 659.144 150.18C659.144 150.353 659.137 150.533 659.124 150.72C659.11 150.907 659.084 151.08 659.044 151.24H650.424V149.44H657.764L656.684 150.26C656.817 149.607 656.77 149.027 656.544 148.52C656.33 148 655.997 147.593 655.544 147.3C655.104 146.993 654.584 146.84 653.984 146.84C653.384 146.84 652.85 146.993 652.384 147.3C651.917 147.593 651.557 148.02 651.304 148.58C651.05 149.127 650.95 149.793 651.004 150.58C650.937 151.313 651.037 151.953 651.304 152.5C651.584 153.047 651.97 153.473 652.464 153.78C652.97 154.087 653.544 154.24 654.184 154.24C654.837 154.24 655.39 154.093 655.844 153.8C656.31 153.507 656.677 153.127 656.944 152.66L658.784 153.56C658.57 154.067 658.237 154.527 657.784 154.94C657.344 155.34 656.81 155.66 656.184 155.9C655.57 156.127 654.897 156.24 654.164 156.24ZM661.349 156V145.18H663.509V147.3L663.249 147.02C663.516 146.34 663.943 145.827 664.529 145.48C665.116 145.12 665.796 144.94 666.569 144.94C667.369 144.94 668.076 145.113 668.689 145.46C669.303 145.807 669.783 146.287 670.129 146.9C670.476 147.513 670.649 148.22 670.649 149.02V156H668.409V149.62C668.409 149.073 668.309 148.613 668.109 148.24C667.909 147.853 667.623 147.56 667.249 147.36C666.889 147.147 666.476 147.04 666.009 147.04C665.543 147.04 665.123 147.147 664.749 147.36C664.389 147.56 664.109 147.853 663.909 148.24C663.709 148.627 663.609 149.087 663.609 149.62V156H661.349ZM677.748 156.12C676.615 156.12 675.735 155.8 675.108 155.16C674.481 154.52 674.168 153.62 674.168 152.46V147.22H672.268V145.18H672.568C673.075 145.18 673.468 145.033 673.748 144.74C674.028 144.447 674.168 144.047 674.168 143.54V142.7H676.428V145.18H678.888V147.22H676.428V152.36C676.428 152.733 676.488 153.053 676.608 153.32C676.728 153.573 676.921 153.773 677.188 153.92C677.455 154.053 677.801 154.12 678.228 154.12C678.335 154.12 678.455 154.113 678.588 154.1C678.721 154.087 678.848 154.073 678.968 154.06V156C678.781 156.027 678.575 156.053 678.348 156.08C678.121 156.107 677.921 156.12 677.748 156.12ZM681.174 156V145.18H683.434V156H681.174ZM681.174 143.7V141.1H683.434V143.7H681.174ZM690.756 156.12C689.623 156.12 688.743 155.8 688.116 155.16C687.489 154.52 687.176 153.62 687.176 152.46V147.22H685.276V145.18H685.576C686.083 145.18 686.476 145.033 686.756 144.74C687.036 144.447 687.176 144.047 687.176 143.54V142.7H689.436V145.18H691.896V147.22H689.436V152.36C689.436 152.733 689.496 153.053 689.616 153.32C689.736 153.573 689.929 153.773 690.196 153.92C690.463 154.053 690.809 154.12 691.236 154.12C691.343 154.12 691.463 154.113 691.596 154.1C691.729 154.087 691.856 154.073 691.976 154.06V156C691.789 156.027 691.583 156.053 691.356 156.08C691.129 156.107 690.929 156.12 690.756 156.12ZM697.324 156.24C696.59 156.24 695.944 156.113 695.384 155.86C694.837 155.593 694.41 155.233 694.104 154.78C693.797 154.313 693.644 153.767 693.644 153.14C693.644 152.553 693.77 152.027 694.024 151.56C694.29 151.093 694.697 150.7 695.244 150.38C695.79 150.06 696.477 149.833 697.304 149.7L701.064 149.08V150.86L697.744 151.44C697.144 151.547 696.704 151.74 696.424 152.02C696.144 152.287 696.004 152.633 696.004 153.06C696.004 153.473 696.157 153.813 696.464 154.08C696.784 154.333 697.19 154.46 697.684 154.46C698.297 154.46 698.83 154.327 699.284 154.06C699.75 153.793 700.11 153.44 700.364 153C700.617 152.547 700.744 152.047 700.744 151.5V148.72C700.744 148.187 700.544 147.753 700.144 147.42C699.757 147.073 699.237 146.9 698.584 146.9C697.984 146.9 697.457 147.06 697.004 147.38C696.564 147.687 696.237 148.087 696.024 148.58L694.144 147.64C694.344 147.107 694.67 146.64 695.124 146.24C695.577 145.827 696.104 145.507 696.704 145.28C697.317 145.053 697.964 144.94 698.644 144.94C699.497 144.94 700.25 145.1 700.904 145.42C701.57 145.74 702.084 146.187 702.444 146.76C702.817 147.32 703.004 147.973 703.004 148.72V156H700.844V154.04L701.304 154.1C701.05 154.54 700.724 154.92 700.324 155.24C699.937 155.56 699.49 155.807 698.984 155.98C698.49 156.153 697.937 156.24 697.324 156.24ZM709.646 156.24C708.54 156.24 707.566 155.967 706.726 155.42C705.9 154.873 705.32 154.14 704.986 153.22L706.726 152.4C707.02 153.013 707.42 153.5 707.926 153.86C708.446 154.22 709.02 154.4 709.646 154.4C710.18 154.4 710.613 154.28 710.946 154.04C711.28 153.8 711.446 153.473 711.446 153.06C711.446 152.793 711.373 152.58 711.226 152.42C711.08 152.247 710.893 152.107 710.666 152C710.453 151.893 710.233 151.813 710.006 151.76L708.306 151.28C707.373 151.013 706.673 150.613 706.206 150.08C705.753 149.533 705.526 148.9 705.526 148.18C705.526 147.527 705.693 146.96 706.026 146.48C706.36 145.987 706.82 145.607 707.406 145.34C707.993 145.073 708.653 144.94 709.386 144.94C710.373 144.94 711.253 145.187 712.026 145.68C712.8 146.16 713.346 146.833 713.666 147.7L711.926 148.52C711.713 148 711.373 147.587 710.906 147.28C710.453 146.973 709.94 146.82 709.366 146.82C708.873 146.82 708.48 146.94 708.186 147.18C707.893 147.407 707.746 147.707 707.746 148.08C707.746 148.333 707.813 148.547 707.946 148.72C708.08 148.88 708.253 149.013 708.466 149.12C708.68 149.213 708.9 149.293 709.126 149.36L710.886 149.88C711.78 150.133 712.466 150.533 712.946 151.08C713.426 151.613 713.666 152.253 713.666 153C713.666 153.64 713.493 154.207 713.146 154.7C712.813 155.18 712.346 155.56 711.746 155.84C711.146 156.107 710.446 156.24 709.646 156.24ZM719.597 156V141.1H725.877C726.81 141.1 727.617 141.267 728.297 141.6C728.977 141.92 729.497 142.387 729.857 143C730.217 143.6 730.397 144.313 730.397 145.14C730.397 145.86 730.21 146.52 729.837 147.12C729.477 147.707 728.91 148.173 728.137 148.52V147.52C728.817 147.787 729.37 148.127 729.797 148.54C730.223 148.94 730.53 149.393 730.717 149.9C730.917 150.407 731.017 150.94 731.017 151.5C731.017 152.9 730.557 154 729.637 154.8C728.73 155.6 727.483 156 725.897 156H719.597ZM721.957 153.9H726.077C726.863 153.9 727.49 153.687 727.957 153.26C728.423 152.82 728.657 152.24 728.657 151.52C728.657 150.787 728.423 150.207 727.957 149.78C727.49 149.34 726.863 149.12 726.077 149.12H721.957V153.9ZM721.957 147.04H725.937C726.577 147.04 727.09 146.86 727.477 146.5C727.863 146.127 728.057 145.64 728.057 145.04C728.057 144.44 727.863 143.973 727.477 143.64C727.09 143.307 726.577 143.14 725.937 143.14H721.957V147.04ZM733.224 156V145.18H735.484V156H733.224ZM733.224 143.7V141.1H735.484V143.7H733.224ZM742.127 156.24C741.02 156.24 740.047 155.967 739.207 155.42C738.38 154.873 737.8 154.14 737.467 153.22L739.207 152.4C739.5 153.013 739.9 153.5 740.407 153.86C740.927 154.22 741.5 154.4 742.127 154.4C742.66 154.4 743.093 154.28 743.427 154.04C743.76 153.8 743.927 153.473 743.927 153.06C743.927 152.793 743.853 152.58 743.707 152.42C743.56 152.247 743.373 152.107 743.147 152C742.933 151.893 742.713 151.813 742.487 151.76L740.787 151.28C739.853 151.013 739.153 150.613 738.687 150.08C738.233 149.533 738.007 148.9 738.007 148.18C738.007 147.527 738.173 146.96 738.507 146.48C738.84 145.987 739.3 145.607 739.887 145.34C740.473 145.073 741.133 144.94 741.867 144.94C742.853 144.94 743.733 145.187 744.507 145.68C745.28 146.16 745.827 146.833 746.147 147.7L744.407 148.52C744.193 148 743.853 147.587 743.387 147.28C742.933 146.973 742.42 146.82 741.847 146.82C741.353 146.82 740.96 146.94 740.667 147.18C740.373 147.407 740.227 147.707 740.227 148.08C740.227 148.333 740.293 148.547 740.427 148.72C740.56 148.88 740.733 149.013 740.947 149.12C741.16 149.213 741.38 149.293 741.607 149.36L743.367 149.88C744.26 150.133 744.947 150.533 745.427 151.08C745.907 151.613 746.147 152.253 746.147 153C746.147 153.64 745.973 154.207 745.627 154.7C745.293 155.18 744.827 155.56 744.227 155.84C743.627 156.107 742.927 156.24 742.127 156.24ZM748.361 156V145.18H750.521V147.3L750.261 147.02C750.528 146.34 750.954 145.827 751.541 145.48C752.128 145.12 752.808 144.94 753.581 144.94C754.381 144.94 755.088 145.113 755.701 145.46C756.314 145.807 756.794 146.287 757.141 146.9C757.488 147.513 757.661 148.22 757.661 149.02V156H755.421V149.62C755.421 149.073 755.321 148.613 755.121 148.24C754.921 147.853 754.634 147.56 754.261 147.36C753.901 147.147 753.488 147.04 753.021 147.04C752.554 147.04 752.134 147.147 751.761 147.36C751.401 147.56 751.121 147.853 750.921 148.24C750.721 148.627 750.621 149.087 750.621 149.62V156H748.361ZM760.08 156V145.18H762.34V156H760.08ZM760.08 143.7V141.1H762.34V143.7H760.08ZM768.982 156.24C767.875 156.24 766.902 155.967 766.062 155.42C765.235 154.873 764.655 154.14 764.322 153.22L766.062 152.4C766.355 153.013 766.755 153.5 767.262 153.86C767.782 154.22 768.355 154.4 768.982 154.4C769.515 154.4 769.949 154.28 770.282 154.04C770.615 153.8 770.782 153.473 770.782 153.06C770.782 152.793 770.709 152.58 770.562 152.42C770.415 152.247 770.229 152.107 770.002 152C769.789 151.893 769.569 151.813 769.342 151.76L767.642 151.28C766.709 151.013 766.009 150.613 765.542 150.08C765.089 149.533 764.862 148.9 764.862 148.18C764.862 147.527 765.029 146.96 765.362 146.48C765.695 145.987 766.155 145.607 766.742 145.34C767.329 145.073 767.989 144.94 768.722 144.94C769.709 144.94 770.589 145.187 771.362 145.68C772.135 146.16 772.682 146.833 773.002 147.7L771.262 148.52C771.049 148 770.709 147.587 770.242 147.28C769.789 146.973 769.275 146.82 768.702 146.82C768.209 146.82 767.815 146.94 767.522 147.18C767.229 147.407 767.082 147.707 767.082 148.08C767.082 148.333 767.149 148.547 767.282 148.72C767.415 148.88 767.589 149.013 767.802 149.12C768.015 149.213 768.235 149.293 768.462 149.36L770.222 149.88C771.115 150.133 771.802 150.533 772.282 151.08C772.762 151.613 773.002 152.253 773.002 153C773.002 153.64 772.829 154.207 772.482 154.7C772.149 155.18 771.682 155.56 771.082 155.84C770.482 156.107 769.782 156.24 768.982 156.24ZM779.673 160.42C779.406 160.42 779.139 160.393 778.873 160.34C778.619 160.3 778.386 160.233 778.173 160.14V158.2C778.333 158.24 778.526 158.273 778.753 158.3C778.979 158.34 779.199 158.36 779.413 158.36C780.039 158.36 780.499 158.22 780.793 157.94C781.099 157.673 781.373 157.253 781.613 156.68L782.333 155.04L782.293 156.94L777.613 145.18H780.033L783.493 154.2H782.673L786.113 145.18H788.553L783.773 157.18C783.519 157.82 783.199 158.38 782.813 158.86C782.439 159.353 781.993 159.733 781.473 160C780.966 160.28 780.366 160.42 779.673 160.42ZM792.949 156.24C792.215 156.24 791.569 156.113 791.009 155.86C790.462 155.593 790.035 155.233 789.729 154.78C789.422 154.313 789.269 153.767 789.269 153.14C789.269 152.553 789.395 152.027 789.649 151.56C789.915 151.093 790.322 150.7 790.869 150.38C791.415 150.06 792.102 149.833 792.929 149.7L796.689 149.08V150.86L793.369 151.44C792.769 151.547 792.329 151.74 792.049 152.02C791.769 152.287 791.629 152.633 791.629 153.06C791.629 153.473 791.782 153.813 792.089 154.08C792.409 154.333 792.815 154.46 793.309 154.46C793.922 154.46 794.455 154.327 794.909 154.06C795.375 153.793 795.735 153.44 795.989 153C796.242 152.547 796.369 152.047 796.369 151.5V148.72C796.369 148.187 796.169 147.753 795.769 147.42C795.382 147.073 794.862 146.9 794.209 146.9C793.609 146.9 793.082 147.06 792.629 147.38C792.189 147.687 791.862 148.087 791.649 148.58L789.769 147.64C789.969 147.107 790.295 146.64 790.749 146.24C791.202 145.827 791.729 145.507 792.329 145.28C792.942 145.053 793.589 144.94 794.269 144.94C795.122 144.94 795.875 145.1 796.529 145.42C797.195 145.74 797.709 146.187 798.069 146.76C798.442 147.32 798.629 147.973 798.629 148.72V156H796.469V154.04L796.929 154.1C796.675 154.54 796.349 154.92 795.949 155.24C795.562 155.56 795.115 155.807 794.609 155.98C794.115 156.153 793.562 156.24 792.949 156.24ZM801.271 156V145.18H803.431V147.3L803.171 147.02C803.438 146.34 803.865 145.827 804.451 145.48C805.038 145.12 805.718 144.94 806.491 144.94C807.291 144.94 807.998 145.113 808.611 145.46C809.225 145.807 809.705 146.287 810.051 146.9C810.398 147.513 810.571 148.22 810.571 149.02V156H808.331V149.62C808.331 149.073 808.231 148.613 808.031 148.24C807.831 147.853 807.545 147.56 807.171 147.36C806.811 147.147 806.398 147.04 805.931 147.04C805.465 147.04 805.045 147.147 804.671 147.36C804.311 147.56 804.031 147.853 803.831 148.24C803.631 148.627 803.531 149.087 803.531 149.62V156H801.271ZM818.21 160.4C817.423 160.4 816.697 160.273 816.03 160.02C815.363 159.767 814.79 159.413 814.31 158.96C813.83 158.52 813.47 158 813.23 157.4L815.31 156.54C815.497 157.047 815.837 157.467 816.33 157.8C816.837 158.133 817.457 158.3 818.19 158.3C818.763 158.3 819.277 158.187 819.73 157.96C820.183 157.747 820.543 157.427 820.81 157C821.077 156.587 821.21 156.087 821.21 155.5V153.06L821.61 153.52C821.237 154.213 820.717 154.74 820.05 155.1C819.397 155.46 818.657 155.64 817.83 155.64C816.83 155.64 815.93 155.407 815.13 154.94C814.33 154.473 813.697 153.833 813.23 153.02C812.777 152.207 812.55 151.293 812.55 150.28C812.55 149.253 812.777 148.34 813.23 147.54C813.697 146.74 814.323 146.107 815.11 145.64C815.897 145.173 816.797 144.94 817.81 144.94C818.637 144.94 819.37 145.12 820.01 145.48C820.663 145.827 821.197 146.333 821.61 147L821.31 147.56V145.18H823.45V155.5C823.45 156.433 823.223 157.267 822.77 158C822.33 158.747 821.717 159.333 820.93 159.76C820.143 160.187 819.237 160.4 818.21 160.4ZM818.09 153.54C818.69 153.54 819.223 153.4 819.69 153.12C820.157 152.827 820.523 152.44 820.79 151.96C821.07 151.467 821.21 150.913 821.21 150.3C821.21 149.687 821.07 149.133 820.79 148.64C820.51 148.147 820.137 147.76 819.67 147.48C819.203 147.187 818.677 147.04 818.09 147.04C817.477 147.04 816.93 147.187 816.45 147.48C815.97 147.76 815.59 148.147 815.31 148.64C815.043 149.12 814.91 149.673 814.91 150.3C814.91 150.9 815.043 151.447 815.31 151.94C815.59 152.433 815.97 152.827 816.45 153.12C816.93 153.4 817.477 153.54 818.09 153.54ZM829.811 156V141.1H832.011L837.611 148.86H836.511L842.011 141.1H844.211V156H841.871V143.88L842.751 144.12L837.131 151.8H836.891L831.391 144.12L832.171 143.88V156H829.811ZM852.152 156.24C851.072 156.24 850.112 155.993 849.272 155.5C848.445 154.993 847.799 154.313 847.332 153.46C846.865 152.593 846.632 151.627 846.632 150.56C846.632 149.467 846.865 148.5 847.332 147.66C847.812 146.82 848.452 146.16 849.252 145.68C850.052 145.187 850.959 144.94 851.972 144.94C852.785 144.94 853.512 145.08 854.152 145.36C854.792 145.64 855.332 146.027 855.772 146.52C856.212 147 856.545 147.553 856.772 148.18C857.012 148.807 857.132 149.473 857.132 150.18C857.132 150.353 857.125 150.533 857.112 150.72C857.099 150.907 857.072 151.08 857.032 151.24H848.412V149.44H855.752L854.672 150.26C854.805 149.607 854.759 149.027 854.532 148.52C854.319 148 853.985 147.593 853.532 147.3C853.092 146.993 852.572 146.84 851.972 146.84C851.372 146.84 850.839 146.993 850.372 147.3C849.905 147.593 849.545 148.02 849.292 148.58C849.039 149.127 848.939 149.793 848.992 150.58C848.925 151.313 849.025 151.953 849.292 152.5C849.572 153.047 849.959 153.473 850.452 153.78C850.959 154.087 851.532 154.24 852.172 154.24C852.825 154.24 853.379 154.093 853.832 153.8C854.299 153.507 854.665 153.127 854.932 152.66L856.772 153.56C856.559 154.067 856.225 154.527 855.772 154.94C855.332 155.34 854.799 155.66 854.172 155.9C853.559 156.127 852.885 156.24 852.152 156.24ZM859.338 156V145.18H861.498V147.3L861.238 147.02C861.504 146.34 861.931 145.827 862.518 145.48C863.104 145.12 863.784 144.94 864.558 144.94C865.358 144.94 866.064 145.113 866.678 145.46C867.291 145.807 867.771 146.287 868.118 146.9C868.464 147.513 868.638 148.22 868.638 149.02V156H866.398V149.62C866.398 149.073 866.298 148.613 866.098 148.24C865.898 147.853 865.611 147.56 865.238 147.36C864.878 147.147 864.464 147.04 863.998 147.04C863.531 147.04 863.111 147.147 862.738 147.36C862.378 147.56 862.098 147.853 861.898 148.24C861.698 148.627 861.598 149.087 861.598 149.62V156H859.338ZM876.276 160.4C875.49 160.4 874.763 160.273 874.096 160.02C873.43 159.767 872.856 159.413 872.376 158.96C871.896 158.52 871.536 158 871.296 157.4L873.376 156.54C873.563 157.047 873.903 157.467 874.396 157.8C874.903 158.133 875.523 158.3 876.256 158.3C876.83 158.3 877.343 158.187 877.796 157.96C878.25 157.747 878.61 157.427 878.876 157C879.143 156.587 879.276 156.087 879.276 155.5V153.06L879.676 153.52C879.303 154.213 878.783 154.74 878.116 155.1C877.463 155.46 876.723 155.64 875.896 155.64C874.896 155.64 873.996 155.407 873.196 154.94C872.396 154.473 871.763 153.833 871.296 153.02C870.843 152.207 870.616 151.293 870.616 150.28C870.616 149.253 870.843 148.34 871.296 147.54C871.763 146.74 872.39 146.107 873.176 145.64C873.963 145.173 874.863 144.94 875.876 144.94C876.703 144.94 877.436 145.12 878.076 145.48C878.73 145.827 879.263 146.333 879.676 147L879.376 147.56V145.18H881.516V155.5C881.516 156.433 881.29 157.267 880.836 158C880.396 158.747 879.783 159.333 878.996 159.76C878.21 160.187 877.303 160.4 876.276 160.4ZM876.156 153.54C876.756 153.54 877.29 153.4 877.756 153.12C878.223 152.827 878.59 152.44 878.856 151.96C879.136 151.467 879.276 150.913 879.276 150.3C879.276 149.687 879.136 149.133 878.856 148.64C878.576 148.147 878.203 147.76 877.736 147.48C877.27 147.187 876.743 147.04 876.156 147.04C875.543 147.04 874.996 147.187 874.516 147.48C874.036 147.76 873.656 148.147 873.376 148.64C873.11 149.12 872.976 149.673 872.976 150.3C872.976 150.9 873.11 151.447 873.376 151.94C873.656 152.433 874.036 152.827 874.516 153.12C874.996 153.4 875.543 153.54 876.156 153.54ZM889.382 160.4C888.595 160.4 887.868 160.273 887.202 160.02C886.535 159.767 885.962 159.413 885.482 158.96C885.002 158.52 884.642 158 884.402 157.4L886.482 156.54C886.668 157.047 887.008 157.467 887.502 157.8C888.008 158.133 888.628 158.3 889.362 158.3C889.935 158.3 890.448 158.187 890.902 157.96C891.355 157.747 891.715 157.427 891.982 157C892.248 156.587 892.382 156.087 892.382 155.5V153.06L892.782 153.52C892.408 154.213 891.888 154.74 891.222 155.1C890.568 155.46 889.828 155.64 889.002 155.64C888.002 155.64 887.102 155.407 886.302 154.94C885.502 154.473 884.868 153.833 884.402 153.02C883.948 152.207 883.722 151.293 883.722 150.28C883.722 149.253 883.948 148.34 884.402 147.54C884.868 146.74 885.495 146.107 886.282 145.64C887.068 145.173 887.968 144.94 888.982 144.94C889.808 144.94 890.542 145.12 891.182 145.48C891.835 145.827 892.368 146.333 892.782 147L892.482 147.56V145.18H894.622V155.5C894.622 156.433 894.395 157.267 893.942 158C893.502 158.747 892.888 159.333 892.102 159.76C891.315 160.187 890.408 160.4 889.382 160.4ZM889.262 153.54C889.862 153.54 890.395 153.4 890.862 153.12C891.328 152.827 891.695 152.44 891.962 151.96C892.242 151.467 892.382 150.913 892.382 150.3C892.382 149.687 892.242 149.133 891.962 148.64C891.682 148.147 891.308 147.76 890.842 147.48C890.375 147.187 889.848 147.04 889.262 147.04C888.648 147.04 888.102 147.187 887.622 147.48C887.142 147.76 886.762 148.147 886.482 148.64C886.215 149.12 886.082 149.673 886.082 150.3C886.082 150.9 886.215 151.447 886.482 151.94C886.762 152.433 887.142 152.827 887.622 153.12C888.102 153.4 888.648 153.54 889.262 153.54ZM902.487 156.24C901.447 156.24 900.494 155.993 899.627 155.5C898.774 155.007 898.094 154.333 897.587 153.48C897.081 152.627 896.827 151.66 896.827 150.58C896.827 149.487 897.081 148.52 897.587 147.68C898.094 146.827 898.774 146.16 899.627 145.68C900.481 145.187 901.434 144.94 902.487 144.94C903.554 144.94 904.507 145.187 905.347 145.68C906.201 146.16 906.874 146.827 907.367 147.68C907.874 148.52 908.127 149.487 908.127 150.58C908.127 151.673 907.874 152.647 907.367 153.5C906.861 154.353 906.181 155.027 905.327 155.52C904.474 156 903.527 156.24 902.487 156.24ZM902.487 154.14C903.127 154.14 903.694 153.987 904.187 153.68C904.681 153.373 905.067 152.953 905.347 152.42C905.641 151.873 905.787 151.26 905.787 150.58C905.787 149.9 905.641 149.293 905.347 148.76C905.067 148.227 904.681 147.807 904.187 147.5C903.694 147.193 903.127 147.04 902.487 147.04C901.861 147.04 901.294 147.193 900.787 147.5C900.294 147.807 899.901 148.227 899.607 148.76C899.327 149.293 899.187 149.9 899.187 150.58C899.187 151.26 899.327 151.873 899.607 152.42C899.901 152.953 900.294 153.373 900.787 153.68C901.294 153.987 901.861 154.14 902.487 154.14ZM915.334 156.24C914.294 156.24 913.36 155.993 912.534 155.5C911.72 154.993 911.074 154.313 910.594 153.46C910.127 152.607 909.894 151.647 909.894 150.58C909.894 149.513 910.134 148.553 910.614 147.7C911.094 146.847 911.74 146.173 912.554 145.68C913.367 145.187 914.287 144.94 915.314 144.94C916.18 144.94 916.947 145.113 917.614 145.46C918.28 145.807 918.807 146.287 919.194 146.9L918.854 147.42V140.86H921.094V156H918.954V153.8L919.214 154.22C918.84 154.873 918.307 155.373 917.614 155.72C916.92 156.067 916.16 156.24 915.334 156.24ZM915.554 154.14C916.18 154.14 916.74 153.987 917.234 153.68C917.74 153.373 918.134 152.953 918.414 152.42C918.707 151.873 918.854 151.26 918.854 150.58C918.854 149.9 918.707 149.293 918.414 148.76C918.134 148.227 917.74 147.807 917.234 147.5C916.74 147.193 916.18 147.04 915.554 147.04C914.927 147.04 914.36 147.193 913.854 147.5C913.347 147.807 912.954 148.227 912.674 148.76C912.394 149.293 912.254 149.9 912.254 150.58C912.254 151.26 912.394 151.873 912.674 152.42C912.954 152.953 913.34 153.373 913.834 153.68C914.34 153.987 914.914 154.14 915.554 154.14ZM926.972 156.24C926.239 156.24 925.592 156.113 925.032 155.86C924.485 155.593 924.059 155.233 923.752 154.78C923.445 154.313 923.292 153.767 923.292 153.14C923.292 152.553 923.419 152.027 923.672 151.56C923.939 151.093 924.345 150.7 924.892 150.38C925.439 150.06 926.125 149.833 926.952 149.7L930.712 149.08V150.86L927.392 151.44C926.792 151.547 926.352 151.74 926.072 152.02C925.792 152.287 925.652 152.633 925.652 153.06C925.652 153.473 925.805 153.813 926.112 154.08C926.432 154.333 926.839 154.46 927.332 154.46C927.945 154.46 928.479 154.327 928.932 154.06C929.399 153.793 929.759 153.44 930.012 153C930.265 152.547 930.392 152.047 930.392 151.5V148.72C930.392 148.187 930.192 147.753 929.792 147.42C929.405 147.073 928.885 146.9 928.232 146.9C927.632 146.9 927.105 147.06 926.652 147.38C926.212 147.687 925.885 148.087 925.672 148.58L923.792 147.64C923.992 147.107 924.319 146.64 924.772 146.24C925.225 145.827 925.752 145.507 926.352 145.28C926.965 145.053 927.612 144.94 928.292 144.94C929.145 144.94 929.899 145.1 930.552 145.42C931.219 145.74 931.732 146.187 932.092 146.76C932.465 147.32 932.652 147.973 932.652 148.72V156H930.492V154.04L930.952 154.1C930.699 154.54 930.372 154.92 929.972 155.24C929.585 155.56 929.139 155.807 928.632 155.98C928.139 156.153 927.585 156.24 926.972 156.24ZM936.395 151.56L936.235 141.1H938.535L938.395 151.56H936.395ZM936.235 156V153.4H938.535V156H936.235Z" fill="#495057"/>
<path d="M465.016 182V173.06H467.944C468.848 173.06 469.636 173.244 470.308 173.612C470.98 173.98 471.5 174.5 471.868 175.172C472.236 175.836 472.42 176.62 472.42 177.524C472.42 178.42 472.236 179.204 471.868 179.876C471.5 180.548 470.98 181.072 470.308 181.448C469.636 181.816 468.848 182 467.944 182H465.016ZM466.192 180.92H467.956C468.62 180.92 469.192 180.78 469.672 180.5C470.16 180.22 470.536 179.828 470.8 179.324C471.064 178.812 471.196 178.212 471.196 177.524C471.196 176.828 471.06 176.228 470.788 175.724C470.524 175.22 470.148 174.832 469.66 174.56C469.18 174.28 468.612 174.14 467.956 174.14H466.192V180.92ZM475.592 182.144C475.168 182.144 474.792 182.068 474.464 181.916C474.144 181.756 473.892 181.54 473.708 181.268C473.524 180.988 473.432 180.668 473.432 180.308C473.432 179.964 473.504 179.656 473.648 179.384C473.8 179.104 474.032 178.868 474.344 178.676C474.664 178.484 475.064 178.348 475.544 178.268L477.944 177.872V178.808L475.796 179.168C475.38 179.24 475.076 179.372 474.884 179.564C474.7 179.756 474.608 179.992 474.608 180.272C474.608 180.536 474.712 180.756 474.92 180.932C475.136 181.108 475.404 181.196 475.724 181.196C476.132 181.196 476.484 181.112 476.78 180.944C477.084 180.768 477.32 180.532 477.488 180.236C477.664 179.94 477.752 179.612 477.752 179.252V177.608C477.752 177.256 477.62 176.972 477.356 176.756C477.1 176.532 476.76 176.42 476.336 176.42C475.968 176.42 475.64 176.516 475.352 176.708C475.072 176.892 474.864 177.14 474.728 177.452L473.756 176.948C473.876 176.652 474.068 176.388 474.332 176.156C474.596 175.916 474.904 175.728 475.256 175.592C475.608 175.456 475.976 175.388 476.36 175.388C476.856 175.388 477.292 175.484 477.668 175.676C478.044 175.86 478.336 176.12 478.544 176.456C478.76 176.784 478.868 177.168 478.868 177.608V182H477.776V180.776L477.98 180.848C477.844 181.104 477.66 181.328 477.428 181.52C477.196 181.712 476.924 181.864 476.612 181.976C476.3 182.088 475.96 182.144 475.592 182.144ZM480.598 182V175.532H481.69V176.72L481.57 176.552C481.722 176.184 481.954 175.912 482.266 175.736C482.578 175.552 482.958 175.46 483.406 175.46H483.802V176.516H483.238C482.782 176.516 482.414 176.66 482.134 176.948C481.854 177.228 481.714 177.628 481.714 178.148V182H480.598ZM484.794 182V175.532H485.91V182H484.794ZM484.794 174.5V173.06H485.91V174.5H484.794ZM489.848 182V173.06H491.024V178.088L490.736 177.968L495.008 173.06H496.484L492.896 177.2L492.956 176.36L496.664 182H495.26L492.428 177.752L491.024 179.36V182H489.848ZM499.44 182.144C499.016 182.144 498.64 182.068 498.312 181.916C497.992 181.756 497.74 181.54 497.556 181.268C497.372 180.988 497.28 180.668 497.28 180.308C497.28 179.964 497.352 179.656 497.496 179.384C497.648 179.104 497.88 178.868 498.192 178.676C498.512 178.484 498.912 178.348 499.392 178.268L501.792 177.872V178.808L499.644 179.168C499.228 179.24 498.924 179.372 498.732 179.564C498.548 179.756 498.456 179.992 498.456 180.272C498.456 180.536 498.56 180.756 498.768 180.932C498.984 181.108 499.252 181.196 499.572 181.196C499.98 181.196 500.332 181.112 500.628 180.944C500.932 180.768 501.168 180.532 501.336 180.236C501.512 179.94 501.6 179.612 501.6 179.252V177.608C501.6 177.256 501.468 176.972 501.204 176.756C500.948 176.532 500.608 176.42 500.184 176.42C499.816 176.42 499.488 176.516 499.2 176.708C498.92 176.892 498.712 177.14 498.576 177.452L497.604 176.948C497.724 176.652 497.916 176.388 498.18 176.156C498.444 175.916 498.752 175.728 499.104 175.592C499.456 175.456 499.824 175.388 500.208 175.388C500.704 175.388 501.14 175.484 501.516 175.676C501.892 175.86 502.184 176.12 502.392 176.456C502.608 176.784 502.716 177.168 502.716 177.608V182H501.624V180.776L501.828 180.848C501.692 181.104 501.508 181.328 501.276 181.52C501.044 181.712 500.772 181.864 500.46 181.976C500.148 182.088 499.808 182.144 499.44 182.144ZM504.446 182V175.532H505.538V176.72L505.418 176.552C505.57 176.184 505.802 175.912 506.114 175.736C506.426 175.552 506.806 175.46 507.254 175.46H507.65V176.516H507.086C506.63 176.516 506.262 176.66 505.982 176.948C505.702 177.228 505.562 177.628 505.562 178.148V182H504.446ZM511.328 182.072C510.696 182.072 510.208 181.892 509.864 181.532C509.528 181.172 509.36 180.664 509.36 180.008V176.6H508.184V175.532H508.424C508.712 175.532 508.94 175.444 509.108 175.268C509.276 175.092 509.36 174.86 509.36 174.572V174.044H510.476V175.532H511.928V176.6H510.476V179.972C510.476 180.188 510.508 180.376 510.572 180.536C510.644 180.696 510.76 180.824 510.92 180.92C511.08 181.008 511.292 181.052 511.556 181.052C511.612 181.052 511.68 181.048 511.76 181.04C511.848 181.032 511.928 181.024 512 181.016V182C511.896 182.024 511.78 182.04 511.652 182.048C511.524 182.064 511.416 182.072 511.328 182.072ZM515.75 182.144C515.286 182.144 514.866 182.036 514.49 181.82C514.122 181.604 513.834 181.304 513.626 180.92C513.426 180.528 513.326 180.08 513.326 179.576V175.532H514.442V179.456C514.442 179.776 514.506 180.056 514.634 180.296C514.77 180.536 514.954 180.724 515.186 180.86C515.426 180.996 515.698 181.064 516.002 181.064C516.306 181.064 516.574 180.996 516.806 180.86C517.046 180.724 517.23 180.528 517.358 180.272C517.494 180.016 517.562 179.712 517.562 179.36V175.532H518.69V182H517.598V180.74L517.778 180.848C517.626 181.256 517.366 181.576 516.998 181.808C516.638 182.032 516.222 182.144 515.75 182.144ZM522.625 182V173.06H523.609L528.745 180.284L528.301 180.332V173.06H529.489V182H528.505L523.393 174.728L523.801 174.68V182H522.625ZM533.248 182.144C532.824 182.144 532.448 182.068 532.12 181.916C531.8 181.756 531.548 181.54 531.364 181.268C531.18 180.988 531.088 180.668 531.088 180.308C531.088 179.964 531.16 179.656 531.304 179.384C531.456 179.104 531.688 178.868 532 178.676C532.32 178.484 532.72 178.348 533.2 178.268L535.6 177.872V178.808L533.452 179.168C533.036 179.24 532.732 179.372 532.54 179.564C532.356 179.756 532.264 179.992 532.264 180.272C532.264 180.536 532.368 180.756 532.576 180.932C532.792 181.108 533.06 181.196 533.38 181.196C533.788 181.196 534.14 181.112 534.436 180.944C534.74 180.768 534.976 180.532 535.144 180.236C535.32 179.94 535.408 179.612 535.408 179.252V177.608C535.408 177.256 535.276 176.972 535.012 176.756C534.756 176.532 534.416 176.42 533.992 176.42C533.624 176.42 533.296 176.516 533.008 176.708C532.728 176.892 532.52 177.14 532.384 177.452L531.412 176.948C531.532 176.652 531.724 176.388 531.988 176.156C532.252 175.916 532.56 175.728 532.912 175.592C533.264 175.456 533.632 175.388 534.016 175.388C534.512 175.388 534.948 175.484 535.324 175.676C535.7 175.86 535.992 176.12 536.2 176.456C536.416 176.784 536.524 177.168 536.524 177.608V182H535.432V180.776L535.636 180.848C535.5 181.104 535.316 181.328 535.084 181.52C534.852 181.712 534.58 181.864 534.268 181.976C533.956 182.088 533.616 182.144 533.248 182.144ZM538.255 182V175.532H539.347V176.852L539.191 176.648C539.351 176.24 539.607 175.928 539.959 175.712C540.311 175.496 540.707 175.388 541.147 175.388C541.651 175.388 542.103 175.528 542.503 175.808C542.911 176.088 543.191 176.456 543.343 176.912L543.031 176.924C543.199 176.42 543.483 176.04 543.883 175.784C544.283 175.52 544.727 175.388 545.215 175.388C545.663 175.388 546.067 175.492 546.427 175.7C546.795 175.908 547.087 176.196 547.303 176.564C547.519 176.932 547.627 177.348 547.627 177.812V182H546.499V178.172C546.499 177.812 546.435 177.508 546.307 177.26C546.179 177.012 546.003 176.82 545.779 176.684C545.563 176.54 545.307 176.468 545.011 176.468C544.723 176.468 544.463 176.54 544.231 176.684C544.007 176.82 543.827 177.016 543.691 177.272C543.563 177.52 543.499 177.82 543.499 178.172V182H542.371V178.172C542.371 177.812 542.307 177.508 542.179 177.26C542.051 177.012 541.875 176.82 541.651 176.684C541.435 176.54 541.179 176.468 540.883 176.468C540.595 176.468 540.335 176.54 540.103 176.684C539.879 176.82 539.699 177.016 539.563 177.272C539.435 177.52 539.371 177.82 539.371 178.172V182H538.255ZM551.108 182.144C550.684 182.144 550.308 182.068 549.98 181.916C549.66 181.756 549.408 181.54 549.224 181.268C549.04 180.988 548.948 180.668 548.948 180.308C548.948 179.964 549.02 179.656 549.164 179.384C549.316 179.104 549.548 178.868 549.86 178.676C550.18 178.484 550.58 178.348 551.06 178.268L553.46 177.872V178.808L551.312 179.168C550.896 179.24 550.592 179.372 550.4 179.564C550.216 179.756 550.124 179.992 550.124 180.272C550.124 180.536 550.228 180.756 550.436 180.932C550.652 181.108 550.92 181.196 551.24 181.196C551.648 181.196 552 181.112 552.296 180.944C552.6 180.768 552.836 180.532 553.004 180.236C553.18 179.94 553.268 179.612 553.268 179.252V177.608C553.268 177.256 553.136 176.972 552.872 176.756C552.616 176.532 552.276 176.42 551.852 176.42C551.484 176.42 551.156 176.516 550.868 176.708C550.588 176.892 550.38 177.14 550.244 177.452L549.272 176.948C549.392 176.652 549.584 176.388 549.848 176.156C550.112 175.916 550.42 175.728 550.772 175.592C551.124 175.456 551.492 175.388 551.876 175.388C552.372 175.388 552.808 175.484 553.184 175.676C553.56 175.86 553.852 176.12 554.06 176.456C554.276 176.784 554.384 177.168 554.384 177.608V182H553.292V180.776L553.496 180.848C553.36 181.104 553.176 181.328 552.944 181.52C552.712 181.712 552.44 181.864 552.128 181.976C551.816 182.088 551.476 182.144 551.108 182.144ZM558.32 182V173.06H559.496V177.044H563.972V173.06H565.16V182H563.972V178.124H559.496V182H558.32ZM567.012 182V175.532H568.128V182H567.012ZM567.012 174.5V173.06H568.128V174.5H567.012ZM569.86 182V175.532H570.952V176.792L570.772 176.684C570.932 176.276 571.188 175.96 571.54 175.736C571.9 175.504 572.32 175.388 572.8 175.388C573.264 175.388 573.676 175.492 574.036 175.7C574.404 175.908 574.692 176.196 574.9 176.564C575.116 176.932 575.224 177.348 575.224 177.812V182H574.096V178.172C574.096 177.812 574.032 177.508 573.904 177.26C573.776 177.012 573.592 176.82 573.352 176.684C573.12 176.54 572.852 176.468 572.548 176.468C572.244 176.468 571.972 176.54 571.732 176.684C571.5 176.82 571.316 177.016 571.18 177.272C571.044 177.52 570.976 177.82 570.976 178.172V182H569.86ZM579.905 184.64C579.449 184.64 579.025 184.568 578.633 184.424C578.249 184.28 577.917 184.08 577.637 183.824C577.365 183.576 577.157 183.284 577.013 182.948L578.057 182.468C578.169 182.772 578.381 183.028 578.693 183.236C579.013 183.452 579.413 183.56 579.893 183.56C580.261 183.56 580.593 183.488 580.889 183.344C581.193 183.208 581.433 183 581.609 182.72C581.785 182.448 581.873 182.116 581.873 181.724V180.272L582.077 180.488C581.853 180.928 581.529 181.264 581.105 181.496C580.689 181.728 580.229 181.844 579.725 181.844C579.117 181.844 578.573 181.704 578.093 181.424C577.613 181.136 577.237 180.748 576.965 180.26C576.693 179.764 576.557 179.216 576.557 178.616C576.557 178.008 576.693 177.46 576.965 176.972C577.237 176.484 577.609 176.1 578.081 175.82C578.561 175.532 579.105 175.388 579.713 175.388C580.217 175.388 580.673 175.504 581.081 175.736C581.497 175.96 581.829 176.272 582.077 176.672L581.909 176.972V175.532H583.001V181.724C583.001 182.284 582.869 182.784 582.605 183.224C582.341 183.664 581.973 184.008 581.501 184.256C581.037 184.512 580.505 184.64 579.905 184.64ZM579.821 180.764C580.205 180.764 580.549 180.668 580.853 180.476C581.165 180.284 581.413 180.028 581.597 179.708C581.781 179.38 581.873 179.016 581.873 178.616C581.873 178.224 581.781 177.864 581.597 177.536C581.413 177.208 581.165 176.948 580.853 176.756C580.549 176.564 580.205 176.468 579.821 176.468C579.429 176.468 579.073 176.564 578.753 176.756C578.433 176.948 578.181 177.208 577.997 177.536C577.821 177.856 577.733 178.216 577.733 178.616C577.733 179.016 577.821 179.38 577.997 179.708C578.181 180.028 578.429 180.284 578.741 180.476C579.061 180.668 579.421 180.764 579.821 180.764ZM587.815 184.64C587.359 184.64 586.935 184.568 586.543 184.424C586.159 184.28 585.827 184.08 585.547 183.824C585.275 183.576 585.067 183.284 584.923 182.948L585.967 182.468C586.079 182.772 586.291 183.028 586.603 183.236C586.923 183.452 587.323 183.56 587.803 183.56C588.171 183.56 588.503 183.488 588.799 183.344C589.103 183.208 589.343 183 589.519 182.72C589.695 182.448 589.783 182.116 589.783 181.724V180.272L589.987 180.488C589.763 180.928 589.439 181.264 589.015 181.496C588.599 181.728 588.139 181.844 587.635 181.844C587.027 181.844 586.483 181.704 586.003 181.424C585.523 181.136 585.147 180.748 584.875 180.26C584.603 179.764 584.467 179.216 584.467 178.616C584.467 178.008 584.603 177.46 584.875 176.972C585.147 176.484 585.519 176.1 585.991 175.82C586.471 175.532 587.015 175.388 587.623 175.388C588.127 175.388 588.583 175.504 588.991 175.736C589.407 175.96 589.739 176.272 589.987 176.672L589.819 176.972V175.532H590.911V181.724C590.911 182.284 590.779 182.784 590.515 183.224C590.251 183.664 589.883 184.008 589.411 184.256C588.947 184.512 588.415 184.64 587.815 184.64ZM587.731 180.764C588.115 180.764 588.459 180.668 588.763 180.476C589.075 180.284 589.323 180.028 589.507 179.708C589.691 179.38 589.783 179.016 589.783 178.616C589.783 178.224 589.691 177.864 589.507 177.536C589.323 177.208 589.075 176.948 588.763 176.756C588.459 176.564 588.115 176.468 587.731 176.468C587.339 176.468 586.983 176.564 586.663 176.756C586.343 176.948 586.091 177.208 585.907 177.536C585.731 177.856 585.643 178.216 585.643 178.616C585.643 179.016 585.731 179.38 585.907 179.708C586.091 180.028 586.339 180.284 586.651 180.476C586.971 180.668 587.331 180.764 587.731 180.764ZM594.537 182.144C594.113 182.144 593.737 182.068 593.409 181.916C593.089 181.756 592.837 181.54 592.653 181.268C592.469 180.988 592.377 180.668 592.377 180.308C592.377 179.964 592.449 179.656 592.593 179.384C592.745 179.104 592.977 178.868 593.289 178.676C593.609 178.484 594.009 178.348 594.489 178.268L596.889 177.872V178.808L594.741 179.168C594.325 179.24 594.021 179.372 593.829 179.564C593.645 179.756 593.553 179.992 593.553 180.272C593.553 180.536 593.657 180.756 593.865 180.932C594.081 181.108 594.349 181.196 594.669 181.196C595.077 181.196 595.429 181.112 595.725 180.944C596.029 180.768 596.265 180.532 596.433 180.236C596.609 179.94 596.697 179.612 596.697 179.252V177.608C596.697 177.256 596.565 176.972 596.301 176.756C596.045 176.532 595.705 176.42 595.281 176.42C594.913 176.42 594.585 176.516 594.297 176.708C594.017 176.892 593.809 177.14 593.673 177.452L592.701 176.948C592.821 176.652 593.013 176.388 593.277 176.156C593.541 175.916 593.849 175.728 594.201 175.592C594.553 175.456 594.921 175.388 595.305 175.388C595.801 175.388 596.237 175.484 596.613 175.676C596.989 175.86 597.281 176.12 597.489 176.456C597.705 176.784 597.813 177.168 597.813 177.608V182H596.721V180.776L596.925 180.848C596.789 181.104 596.605 181.328 596.373 181.52C596.141 181.712 595.869 181.864 595.557 181.976C595.245 182.088 594.905 182.144 594.537 182.144ZM601.75 182V173.06H605.506C606.042 173.06 606.502 173.156 606.886 173.348C607.278 173.54 607.578 173.812 607.786 174.164C608.002 174.508 608.11 174.92 608.11 175.4C608.11 175.84 607.994 176.24 607.762 176.6C607.538 176.952 607.206 177.228 606.766 177.428L606.754 176.984C607.138 177.128 607.454 177.32 607.702 177.56C607.958 177.792 608.15 178.064 608.278 178.376C608.406 178.68 608.47 179.004 608.47 179.348C608.47 180.172 608.206 180.82 607.678 181.292C607.15 181.764 606.43 182 605.518 182H601.75ZM602.926 180.92H605.566C606.086 180.92 606.502 180.78 606.814 180.5C607.126 180.22 607.282 179.84 607.282 179.36C607.282 178.88 607.126 178.5 606.814 178.22C606.502 177.932 606.086 177.788 605.566 177.788H602.926V180.92ZM602.926 176.732H605.482C605.914 176.732 606.262 176.608 606.526 176.36C606.79 176.104 606.922 175.78 606.922 175.388C606.922 174.98 606.79 174.668 606.526 174.452C606.262 174.236 605.914 174.128 605.482 174.128H602.926V176.732ZM611.823 182.144C611.399 182.144 611.023 182.068 610.695 181.916C610.375 181.756 610.123 181.54 609.939 181.268C609.755 180.988 609.663 180.668 609.663 180.308C609.663 179.964 609.735 179.656 609.879 179.384C610.031 179.104 610.263 178.868 610.575 178.676C610.895 178.484 611.295 178.348 611.775 178.268L614.175 177.872V178.808L612.027 179.168C611.611 179.24 611.307 179.372 611.115 179.564C610.931 179.756 610.839 179.992 610.839 180.272C610.839 180.536 610.943 180.756 611.151 180.932C611.367 181.108 611.635 181.196 611.955 181.196C612.363 181.196 612.715 181.112 613.011 180.944C613.315 180.768 613.551 180.532 613.719 180.236C613.895 179.94 613.983 179.612 613.983 179.252V177.608C613.983 177.256 613.851 176.972 613.587 176.756C613.331 176.532 612.991 176.42 612.567 176.42C612.199 176.42 611.871 176.516 611.583 176.708C611.303 176.892 611.095 177.14 610.959 177.452L609.987 176.948C610.107 176.652 610.299 176.388 610.562 176.156C610.827 175.916 611.135 175.728 611.487 175.592C611.839 175.456 612.207 175.388 612.59 175.388C613.087 175.388 613.523 175.484 613.899 175.676C614.275 175.86 614.567 176.12 614.775 176.456C614.991 176.784 615.099 177.168 615.099 177.608V182H614.007V180.776L614.211 180.848C614.075 181.104 613.891 181.328 613.659 181.52C613.427 181.712 613.155 181.864 612.843 181.976C612.531 182.088 612.191 182.144 611.823 182.144ZM616.829 182V175.532H617.921V176.792L617.741 176.684C617.901 176.276 618.157 175.96 618.509 175.736C618.869 175.504 619.289 175.388 619.769 175.388C620.233 175.388 620.645 175.492 621.005 175.7C621.373 175.908 621.661 176.196 621.869 176.564C622.085 176.932 622.193 177.348 622.193 177.812V182H621.065V178.172C621.065 177.812 621.001 177.508 620.873 177.26C620.745 177.012 620.561 176.82 620.321 176.684C620.089 176.54 619.821 176.468 619.517 176.468C619.213 176.468 618.941 176.54 618.701 176.684C618.469 176.82 618.285 177.016 618.149 177.272C618.013 177.52 617.945 177.82 617.945 178.172V182H616.829ZM623.79 182V175.532H624.882V176.792L624.702 176.684C624.862 176.276 625.118 175.96 625.47 175.736C625.83 175.504 626.25 175.388 626.73 175.388C627.194 175.388 627.606 175.492 627.966 175.7C628.334 175.908 628.622 176.196 628.83 176.564C629.046 176.932 629.154 177.348 629.154 177.812V182H628.026V178.172C628.026 177.812 627.962 177.508 627.834 177.26C627.706 177.012 627.522 176.82 627.282 176.684C627.05 176.54 626.782 176.468 626.478 176.468C626.174 176.468 625.902 176.54 625.662 176.684C625.43 176.82 625.246 177.016 625.11 177.272C624.974 177.52 624.906 177.82 624.906 178.172V182H623.79ZM633.727 182.144C633.103 182.144 632.547 181.996 632.059 181.7C631.571 181.404 631.187 181 630.907 180.488C630.627 179.968 630.487 179.388 630.487 178.748C630.487 178.1 630.623 177.524 630.895 177.02C631.175 176.516 631.551 176.12 632.023 175.832C632.503 175.536 633.039 175.388 633.631 175.388C634.111 175.388 634.535 175.476 634.903 175.652C635.279 175.82 635.595 176.052 635.851 176.348C636.115 176.636 636.315 176.968 636.451 177.344C636.595 177.712 636.667 178.096 636.667 178.496C636.667 178.584 636.659 178.684 636.643 178.796C636.635 178.9 636.623 179 636.607 179.096H631.303V178.136H635.959L635.431 178.568C635.503 178.152 635.463 177.78 635.311 177.452C635.159 177.124 634.935 176.864 634.639 176.672C634.343 176.48 634.007 176.384 633.631 176.384C633.255 176.384 632.911 176.48 632.599 176.672C632.287 176.864 632.043 177.14 631.867 177.5C631.699 177.852 631.631 178.272 631.663 178.76C631.631 179.232 631.703 179.648 631.879 180.008C632.063 180.36 632.319 180.636 632.647 180.836C632.983 181.028 633.347 181.124 633.739 181.124C634.171 181.124 634.535 181.024 634.831 180.824C635.127 180.624 635.367 180.368 635.551 180.056L636.487 180.536C636.359 180.832 636.159 181.104 635.887 181.352C635.623 181.592 635.307 181.784 634.939 181.928C634.579 182.072 634.175 182.144 633.727 182.144ZM638.122 182V175.532H639.214V176.72L639.094 176.552C639.246 176.184 639.478 175.912 639.79 175.736C640.102 175.552 640.482 175.46 640.93 175.46H641.326V176.516H640.762C640.306 176.516 639.938 176.66 639.658 176.948C639.378 177.228 639.238 177.628 639.238 178.148V182H638.122ZM642.029 183.668V183.128C642.277 183.064 642.465 182.94 642.593 182.756C642.721 182.572 642.793 182.32 642.809 182H642.269V180.56H643.433V181.58C643.433 182.156 643.313 182.62 643.073 182.972C642.841 183.324 642.493 183.556 642.029 183.668ZM647.629 182V173.06H648.805V180.92H652.729V182H647.629ZM655.815 182.144C655.391 182.144 655.015 182.068 654.687 181.916C654.367 181.756 654.115 181.54 653.931 181.268C653.747 180.988 653.655 180.668 653.655 180.308C653.655 179.964 653.727 179.656 653.871 179.384C654.023 179.104 654.255 178.868 654.567 178.676C654.887 178.484 655.287 178.348 655.767 178.268L658.167 177.872V178.808L656.019 179.168C655.603 179.24 655.299 179.372 655.107 179.564C654.923 179.756 654.831 179.992 654.831 180.272C654.831 180.536 654.935 180.756 655.143 180.932C655.359 181.108 655.627 181.196 655.947 181.196C656.355 181.196 656.707 181.112 657.003 180.944C657.307 180.768 657.543 180.532 657.711 180.236C657.887 179.94 657.975 179.612 657.975 179.252V177.608C657.975 177.256 657.843 176.972 657.579 176.756C657.323 176.532 656.983 176.42 656.559 176.42C656.191 176.42 655.863 176.516 655.575 176.708C655.295 176.892 655.087 177.14 654.951 177.452L653.979 176.948C654.099 176.652 654.291 176.388 654.555 176.156C654.819 175.916 655.127 175.728 655.479 175.592C655.831 175.456 656.199 175.388 656.583 175.388C657.079 175.388 657.515 175.484 657.891 175.676C658.267 175.86 658.559 176.12 658.767 176.456C658.983 176.784 659.091 177.168 659.091 177.608V182H657.999V180.776L658.203 180.848C658.067 181.104 657.883 181.328 657.651 181.52C657.419 181.712 657.147 181.864 656.835 181.976C656.523 182.088 656.183 182.144 655.815 182.144ZM661.169 184.64C661.025 184.64 660.881 184.628 660.737 184.604C660.593 184.588 660.457 184.552 660.329 184.496V183.5C660.417 183.508 660.525 183.524 660.653 183.548C660.789 183.572 660.921 183.584 661.049 183.584C661.425 183.584 661.709 183.5 661.901 183.332C662.101 183.164 662.289 182.88 662.465 182.48L662.873 181.508L662.849 182.48L660.089 175.532H661.301L663.449 181.052H663.089L665.225 175.532H666.461L663.545 182.768C663.409 183.112 663.233 183.428 663.017 183.716C662.809 184.004 662.553 184.228 662.249 184.388C661.945 184.556 661.585 184.64 661.169 184.64ZM669.115 182.144C668.691 182.144 668.315 182.068 667.987 181.916C667.667 181.756 667.415 181.54 667.231 181.268C667.047 180.988 666.955 180.668 666.955 180.308C666.955 179.964 667.027 179.656 667.171 179.384C667.323 179.104 667.555 178.868 667.867 178.676C668.187 178.484 668.587 178.348 669.067 178.268L671.467 177.872V178.808L669.319 179.168C668.903 179.24 668.599 179.372 668.407 179.564C668.223 179.756 668.131 179.992 668.131 180.272C668.131 180.536 668.235 180.756 668.443 180.932C668.659 181.108 668.927 181.196 669.247 181.196C669.655 181.196 670.007 181.112 670.303 180.944C670.607 180.768 670.843 180.532 671.011 180.236C671.187 179.94 671.275 179.612 671.275 179.252V177.608C671.275 177.256 671.143 176.972 670.879 176.756C670.623 176.532 670.283 176.42 669.859 176.42C669.491 176.42 669.163 176.516 668.875 176.708C668.595 176.892 668.387 177.14 668.251 177.452L667.279 176.948C667.399 176.652 667.591 176.388 667.855 176.156C668.119 175.916 668.427 175.728 668.779 175.592C669.131 175.456 669.499 175.388 669.883 175.388C670.379 175.388 670.815 175.484 671.191 175.676C671.567 175.86 671.859 176.12 672.067 176.456C672.283 176.784 672.391 177.168 672.391 177.608V182H671.299V180.776L671.503 180.848C671.367 181.104 671.183 181.328 670.951 181.52C670.719 181.712 670.447 181.864 670.135 181.976C669.823 182.088 669.483 182.144 669.115 182.144ZM674.122 182V175.532H675.214V176.792L675.034 176.684C675.194 176.276 675.45 175.96 675.802 175.736C676.162 175.504 676.582 175.388 677.062 175.388C677.526 175.388 677.938 175.492 678.298 175.7C678.666 175.908 678.954 176.196 679.162 176.564C679.378 176.932 679.486 177.348 679.486 177.812V182H678.358V178.172C678.358 177.812 678.294 177.508 678.166 177.26C678.038 177.012 677.854 176.82 677.614 176.684C677.382 176.54 677.114 176.468 676.81 176.468C676.506 176.468 676.234 176.54 675.994 176.684C675.762 176.82 675.578 177.016 675.442 177.272C675.306 177.52 675.238 177.82 675.238 178.172V182H674.122ZM682.979 182.144C682.555 182.144 682.179 182.068 681.851 181.916C681.531 181.756 681.279 181.54 681.095 181.268C680.911 180.988 680.819 180.668 680.819 180.308C680.819 179.964 680.891 179.656 681.035 179.384C681.187 179.104 681.419 178.868 681.731 178.676C682.051 178.484 682.451 178.348 682.931 178.268L685.331 177.872V178.808L683.183 179.168C682.767 179.24 682.463 179.372 682.271 179.564C682.087 179.756 681.995 179.992 681.995 180.272C681.995 180.536 682.099 180.756 682.307 180.932C682.523 181.108 682.791 181.196 683.111 181.196C683.519 181.196 683.871 181.112 684.167 180.944C684.471 180.768 684.707 180.532 684.875 180.236C685.051 179.94 685.139 179.612 685.139 179.252V177.608C685.139 177.256 685.007 176.972 684.743 176.756C684.487 176.532 684.147 176.42 683.723 176.42C683.355 176.42 683.027 176.516 682.739 176.708C682.459 176.892 682.251 177.14 682.115 177.452L681.143 176.948C681.263 176.652 681.455 176.388 681.719 176.156C681.983 175.916 682.291 175.728 682.643 175.592C682.995 175.456 683.363 175.388 683.747 175.388C684.243 175.388 684.679 175.484 685.055 175.676C685.431 175.86 685.723 176.12 685.931 176.456C686.147 176.784 686.255 177.168 686.255 177.608V182H685.163V180.776L685.367 180.848C685.231 181.104 685.047 181.328 684.815 181.52C684.583 181.712 684.311 181.864 683.999 181.976C683.687 182.088 683.347 182.144 682.979 182.144ZM687.985 182V175.532H689.077V176.792L688.897 176.684C689.057 176.276 689.313 175.96 689.665 175.736C690.025 175.504 690.445 175.388 690.925 175.388C691.389 175.388 691.801 175.492 692.161 175.7C692.529 175.908 692.817 176.196 693.025 176.564C693.241 176.932 693.349 177.348 693.349 177.812V182H692.221V178.172C692.221 177.812 692.157 177.508 692.029 177.26C691.901 177.012 691.717 176.82 691.477 176.684C691.245 176.54 690.977 176.468 690.673 176.468C690.369 176.468 690.097 176.54 689.857 176.684C689.625 176.82 689.441 177.016 689.305 177.272C689.169 177.52 689.101 177.82 689.101 178.172V182H687.985ZM697.152 182V173.06H698.328V178.088L698.04 177.968L702.312 173.06H703.788L700.2 177.2L700.26 176.36L703.968 182H702.564L699.732 177.752L698.328 179.36V182H697.152ZM706.744 182.144C706.32 182.144 705.944 182.068 705.616 181.916C705.296 181.756 705.044 181.54 704.86 181.268C704.676 180.988 704.584 180.668 704.584 180.308C704.584 179.964 704.656 179.656 704.8 179.384C704.952 179.104 705.184 178.868 705.496 178.676C705.816 178.484 706.216 178.348 706.696 178.268L709.096 177.872V178.808L706.948 179.168C706.532 179.24 706.228 179.372 706.036 179.564C705.852 179.756 705.76 179.992 705.76 180.272C705.76 180.536 705.864 180.756 706.072 180.932C706.288 181.108 706.556 181.196 706.876 181.196C707.284 181.196 707.636 181.112 707.932 180.944C708.236 180.768 708.472 180.532 708.64 180.236C708.816 179.94 708.904 179.612 708.904 179.252V177.608C708.904 177.256 708.772 176.972 708.508 176.756C708.252 176.532 707.912 176.42 707.488 176.42C707.12 176.42 706.792 176.516 706.504 176.708C706.224 176.892 706.016 177.14 705.88 177.452L704.908 176.948C705.028 176.652 705.22 176.388 705.484 176.156C705.748 175.916 706.056 175.728 706.408 175.592C706.76 175.456 707.128 175.388 707.512 175.388C708.008 175.388 708.444 175.484 708.82 175.676C709.196 175.86 709.488 176.12 709.696 176.456C709.912 176.784 710.02 177.168 710.02 177.608V182H708.928V180.776L709.132 180.848C708.996 181.104 708.812 181.328 708.58 181.52C708.348 181.712 708.076 181.864 707.764 181.976C707.452 182.088 707.112 182.144 706.744 182.144ZM711.751 182V175.532H712.843V176.852L712.687 176.648C712.847 176.24 713.103 175.928 713.455 175.712C713.807 175.496 714.203 175.388 714.643 175.388C715.147 175.388 715.599 175.528 715.999 175.808C716.407 176.088 716.687 176.456 716.839 176.912L716.527 176.924C716.695 176.42 716.979 176.04 717.379 175.784C717.779 175.52 718.223 175.388 718.711 175.388C719.159 175.388 719.563 175.492 719.923 175.7C720.291 175.908 720.583 176.196 720.799 176.564C721.015 176.932 721.123 177.348 721.123 177.812V182H719.995V178.172C719.995 177.812 719.931 177.508 719.803 177.26C719.675 177.012 719.499 176.82 719.275 176.684C719.059 176.54 718.803 176.468 718.507 176.468C718.219 176.468 717.959 176.54 717.727 176.684C717.503 176.82 717.323 177.016 717.187 177.272C717.059 177.52 716.995 177.82 716.995 178.172V182H715.867V178.172C715.867 177.812 715.803 177.508 715.675 177.26C715.547 177.012 715.371 176.82 715.147 176.684C714.931 176.54 714.675 176.468 714.379 176.468C714.091 176.468 713.831 176.54 713.599 176.684C713.375 176.82 713.195 177.016 713.059 177.272C712.931 177.52 712.867 177.82 712.867 178.172V182H711.751ZM722.708 182V175.532H723.824V182H722.708ZM722.708 174.5V173.06H723.824V174.5H722.708ZM729.322 182V174.14H726.898V173.06H732.898V174.14H730.51V182H729.322ZM735.08 182.144C734.656 182.144 734.28 182.068 733.952 181.916C733.632 181.756 733.38 181.54 733.196 181.268C733.012 180.988 732.92 180.668 732.92 180.308C732.92 179.964 732.992 179.656 733.136 179.384C733.288 179.104 733.52 178.868 733.832 178.676C734.152 178.484 734.552 178.348 735.032 178.268L737.432 177.872V178.808L735.284 179.168C734.868 179.24 734.564 179.372 734.372 179.564C734.188 179.756 734.096 179.992 734.096 180.272C734.096 180.536 734.2 180.756 734.408 180.932C734.624 181.108 734.892 181.196 735.212 181.196C735.62 181.196 735.972 181.112 736.268 180.944C736.572 180.768 736.808 180.532 736.976 180.236C737.152 179.94 737.24 179.612 737.24 179.252V177.608C737.24 177.256 737.108 176.972 736.844 176.756C736.588 176.532 736.248 176.42 735.824 176.42C735.456 176.42 735.128 176.516 734.84 176.708C734.56 176.892 734.352 177.14 734.216 177.452L733.244 176.948C733.364 176.652 733.556 176.388 733.82 176.156C734.084 175.916 734.392 175.728 734.744 175.592C735.096 175.456 735.464 175.388 735.848 175.388C736.344 175.388 736.78 175.484 737.156 175.676C737.532 175.86 737.824 176.12 738.032 176.456C738.248 176.784 738.356 177.168 738.356 177.608V182H737.264V180.776L737.468 180.848C737.332 181.104 737.148 181.328 736.916 181.52C736.684 181.712 736.412 181.864 736.1 181.976C735.788 182.088 735.448 182.144 735.08 182.144ZM740.087 182V172.916H741.203V179.144L740.747 179.036L744.179 175.532H745.607L743.123 178.136L745.775 182H744.455L742.031 178.496L742.727 178.46L740.843 180.428L741.203 179.612V182H740.087ZM750.544 182V174.14H748.12V173.06H754.12V174.14H751.732V182H750.544ZM757.254 182.144C756.63 182.144 756.074 181.996 755.586 181.7C755.098 181.404 754.714 181 754.434 180.488C754.154 179.968 754.014 179.388 754.014 178.748C754.014 178.1 754.15 177.524 754.422 177.02C754.702 176.516 755.078 176.12 755.55 175.832C756.03 175.536 756.566 175.388 757.158 175.388C757.638 175.388 758.062 175.476 758.43 175.652C758.806 175.82 759.122 176.052 759.378 176.348C759.642 176.636 759.842 176.968 759.978 177.344C760.122 177.712 760.194 178.096 760.194 178.496C760.194 178.584 760.186 178.684 760.17 178.796C760.162 178.9 760.15 179 760.134 179.096H754.83V178.136H759.486L758.958 178.568C759.03 178.152 758.99 177.78 758.838 177.452C758.686 177.124 758.462 176.864 758.166 176.672C757.87 176.48 757.534 176.384 757.158 176.384C756.782 176.384 756.438 176.48 756.126 176.672C755.814 176.864 755.57 177.14 755.394 177.5C755.226 177.852 755.158 178.272 755.19 178.76C755.158 179.232 755.23 179.648 755.406 180.008C755.59 180.36 755.846 180.636 756.174 180.836C756.51 181.028 756.874 181.124 757.266 181.124C757.698 181.124 758.062 181.024 758.358 180.824C758.654 180.624 758.894 180.368 759.078 180.056L760.014 180.536C759.886 180.832 759.686 181.104 759.414 181.352C759.15 181.592 758.834 181.784 758.466 181.928C758.106 182.072 757.702 182.144 757.254 182.144ZM761.649 182V175.532H762.741V176.72L762.621 176.552C762.773 176.184 763.005 175.912 763.317 175.736C763.629 175.552 764.009 175.46 764.457 175.46H764.853V176.516H764.289C763.833 176.516 763.465 176.66 763.185 176.948C762.905 177.228 762.765 177.628 762.765 178.148V182H761.649ZM768.531 182.072C767.899 182.072 767.411 181.892 767.067 181.532C766.731 181.172 766.563 180.664 766.563 180.008V176.6H765.387V175.532H765.627C765.915 175.532 766.143 175.444 766.311 175.268C766.479 175.092 766.563 174.86 766.563 174.572V174.044H767.679V175.532H769.131V176.6H767.679V179.972C767.679 180.188 767.711 180.376 767.775 180.536C767.847 180.696 767.963 180.824 768.123 180.92C768.283 181.008 768.495 181.052 768.759 181.052C768.815 181.052 768.883 181.048 768.963 181.04C769.051 181.032 769.131 181.024 769.203 181.016V182C769.099 182.024 768.983 182.04 768.855 182.048C768.727 182.064 768.619 182.072 768.531 182.072ZM772.475 182.144C772.051 182.144 771.675 182.068 771.347 181.916C771.027 181.756 770.775 181.54 770.591 181.268C770.407 180.988 770.315 180.668 770.315 180.308C770.315 179.964 770.387 179.656 770.531 179.384C770.683 179.104 770.915 178.868 771.227 178.676C771.547 178.484 771.947 178.348 772.427 178.268L774.827 177.872V178.808L772.679 179.168C772.263 179.24 771.959 179.372 771.767 179.564C771.583 179.756 771.491 179.992 771.491 180.272C771.491 180.536 771.595 180.756 771.803 180.932C772.019 181.108 772.287 181.196 772.607 181.196C773.015 181.196 773.367 181.112 773.663 180.944C773.967 180.768 774.203 180.532 774.371 180.236C774.547 179.94 774.635 179.612 774.635 179.252V177.608C774.635 177.256 774.503 176.972 774.239 176.756C773.983 176.532 773.643 176.42 773.219 176.42C772.851 176.42 772.523 176.516 772.235 176.708C771.955 176.892 771.747 177.14 771.611 177.452L770.639 176.948C770.759 176.652 770.951 176.388 771.215 176.156C771.479 175.916 771.787 175.728 772.139 175.592C772.491 175.456 772.859 175.388 773.243 175.388C773.739 175.388 774.175 175.484 774.551 175.676C774.927 175.86 775.219 176.12 775.427 176.456C775.643 176.784 775.751 177.168 775.751 177.608V182H774.659V180.776L774.863 180.848C774.727 181.104 774.543 181.328 774.311 181.52C774.079 181.712 773.807 181.864 773.495 181.976C773.183 182.088 772.843 182.144 772.475 182.144ZM777.481 182V175.532H778.573V176.792L778.393 176.684C778.553 176.276 778.809 175.96 779.161 175.736C779.521 175.504 779.941 175.388 780.421 175.388C780.885 175.388 781.297 175.492 781.657 175.7C782.025 175.908 782.313 176.196 782.521 176.564C782.737 176.932 782.845 177.348 782.845 177.812V182H781.717V178.172C781.717 177.812 781.653 177.508 781.525 177.26C781.397 177.012 781.213 176.82 780.973 176.684C780.741 176.54 780.473 176.468 780.169 176.468C779.865 176.468 779.593 176.54 779.353 176.684C779.121 176.82 778.937 177.016 778.801 177.272C778.665 177.52 778.597 177.82 778.597 178.172V182H777.481ZM787.382 182.144C786.774 182.144 786.226 181.996 785.738 181.7C785.258 181.404 784.878 181 784.598 180.488C784.318 179.976 784.178 179.404 784.178 178.772C784.178 178.124 784.318 177.548 784.598 177.044C784.878 176.532 785.258 176.128 785.738 175.832C786.226 175.536 786.774 175.388 787.382 175.388C787.918 175.388 788.394 175.504 788.81 175.736C789.226 175.96 789.554 176.264 789.794 176.648L789.614 176.924V172.916H790.742V182H789.65V180.62L789.794 180.812C789.57 181.236 789.242 181.564 788.81 181.796C788.386 182.028 787.91 182.144 787.382 182.144ZM787.478 181.064C787.886 181.064 788.25 180.964 788.57 180.764C788.89 180.564 789.142 180.292 789.326 179.948C789.518 179.596 789.614 179.204 789.614 178.772C789.614 178.332 789.518 177.94 789.326 177.596C789.142 177.244 788.89 176.968 788.57 176.768C788.25 176.568 787.886 176.468 787.478 176.468C787.078 176.468 786.714 176.572 786.386 176.78C786.066 176.98 785.814 177.252 785.63 177.596C785.446 177.932 785.354 178.324 785.354 178.772C785.354 179.204 785.446 179.596 785.63 179.948C785.814 180.292 786.066 180.564 786.386 180.764C786.706 180.964 787.07 181.064 787.478 181.064ZM792.469 182V175.532H793.585V182H792.469ZM792.469 174.5V173.06H793.585V174.5H792.469ZM795.317 182V175.532H796.409V176.792L796.229 176.684C796.389 176.276 796.645 175.96 796.997 175.736C797.357 175.504 797.777 175.388 798.257 175.388C798.721 175.388 799.133 175.492 799.493 175.7C799.861 175.908 800.149 176.196 800.357 176.564C800.573 176.932 800.681 177.348 800.681 177.812V182H799.553V178.172C799.553 177.812 799.489 177.508 799.361 177.26C799.233 177.012 799.049 176.82 798.809 176.684C798.577 176.54 798.309 176.468 798.005 176.468C797.701 176.468 797.429 176.54 797.189 176.684C796.957 176.82 796.773 177.016 796.637 177.272C796.501 177.52 796.433 177.82 796.433 178.172V182H795.317ZM805.362 184.64C804.906 184.64 804.482 184.568 804.09 184.424C803.706 184.28 803.374 184.08 803.094 183.824C802.822 183.576 802.614 183.284 802.47 182.948L803.514 182.468C803.626 182.772 803.838 183.028 804.15 183.236C804.47 183.452 804.87 183.56 805.35 183.56C805.718 183.56 806.05 183.488 806.346 183.344C806.65 183.208 806.89 183 807.066 182.72C807.242 182.448 807.33 182.116 807.33 181.724V180.272L807.534 180.488C807.31 180.928 806.986 181.264 806.562 181.496C806.146 181.728 805.686 181.844 805.182 181.844C804.574 181.844 804.03 181.704 803.55 181.424C803.07 181.136 802.694 180.748 802.422 180.26C802.15 179.764 802.014 179.216 802.014 178.616C802.014 178.008 802.15 177.46 802.422 176.972C802.694 176.484 803.066 176.1 803.538 175.82C804.018 175.532 804.562 175.388 805.17 175.388C805.674 175.388 806.13 175.504 806.538 175.736C806.954 175.96 807.286 176.272 807.534 176.672L807.366 176.972V175.532H808.458V181.724C808.458 182.284 808.326 182.784 808.062 183.224C807.798 183.664 807.43 184.008 806.958 184.256C806.494 184.512 805.962 184.64 805.362 184.64ZM805.278 180.764C805.662 180.764 806.006 180.668 806.31 180.476C806.622 180.284 806.87 180.028 807.054 179.708C807.238 179.38 807.33 179.016 807.33 178.616C807.33 178.224 807.238 177.864 807.054 177.536C806.87 177.208 806.622 176.948 806.31 176.756C806.006 176.564 805.662 176.468 805.278 176.468C804.886 176.468 804.53 176.564 804.21 176.756C803.89 176.948 803.638 177.208 803.454 177.536C803.278 177.856 803.19 178.216 803.19 178.616C803.19 179.016 803.278 179.38 803.454 179.708C803.638 180.028 803.886 180.284 804.198 180.476C804.518 180.668 804.878 180.764 805.278 180.764ZM810.188 182V175.532H811.304V182H810.188ZM810.188 174.5V173.06H811.304V174.5H810.188ZM813.492 182V180.56H814.656V182H813.492Z" fill="#495057"/>
<circle cx="266.5" cy="65.5" r="20" fill="white" stroke="#EFEDF8" stroke-width="7"/>
<circle cx="991" cy="249" r="11.5" fill="white" stroke="#EFEDF8" stroke-width="7"/>
<circle cx="350.5" cy="96.5" r="4" fill="white" stroke="#EFEDF8" stroke-width="7"/>
<circle cx="250.5" cy="241.5" r="4" fill="white" stroke="#EFEDF8" stroke-width="7"/>
<path d="M994 80L994 104" stroke="black" stroke-width="7" stroke-linecap="round"/>
<path d="M994 80L994 104" stroke="#EFEDF8" stroke-width="7" stroke-linecap="round"/>
<path d="M1006 92L982 92" stroke="black" stroke-width="7" stroke-linecap="round"/>
<path d="M1006 92L982 92" stroke="#EFEDF8" stroke-width="7" stroke-linecap="round"/>
<path d="M897 219L897 231" stroke="black" stroke-width="5" stroke-linecap="round"/>
<path d="M897 219L897 231" stroke="#EFEDF8" stroke-width="5" stroke-linecap="round"/>
<path d="M903 225L891 225" stroke="black" stroke-width="5" stroke-linecap="round"/>
<path d="M903 225L891 225" stroke="#EFEDF8" stroke-width="5" stroke-linecap="round"/>
<path d="M509 60L509 72" stroke="black" stroke-width="5" stroke-linecap="round"/>
<path d="M509 60L509 72" stroke="#EFEDF8" stroke-width="5" stroke-linecap="round"/>
<path d="M515 66L503 66" stroke="black" stroke-width="5" stroke-linecap="round"/>
<path d="M515 66L503 66" stroke="#EFEDF8" stroke-width="5" stroke-linecap="round"/>
</svg>
