<svg width="666" height="35" viewBox="0 0 666 35" fill="none" xmlns="http://www.w3.org/2000/svg">
<g clip-path="url(#clip0_115_2596)">
<path d="M6.34962 23.3899H3.21191V15.568H1.07446V13.0211H3.21191V11.2091C3.21191 9.0617 4.15722 7.52148 7.2866 7.52148C7.94845 7.52148 8.9877 7.65472 8.9877 7.65472V10.0197H7.89616C6.78397 10.0197 6.34995 10.3581 6.34995 11.2931V13.0211H8.94606L8.7149 15.568H6.34995V23.3899H6.34962ZM13.5494 12.8176C13.5037 12.8176 13.4568 12.8193 13.4101 12.8203C10.5006 12.8203 9.16957 15.0087 9.16957 18.1154C9.16957 22.0292 10.8963 23.5954 13.4331 23.5954C14.8844 23.5954 15.838 22.9845 16.4176 21.8444V23.3906H19.4021V13.0221H16.4176V14.6166C15.9443 13.5907 14.9643 12.8296 13.5497 12.8173L13.5494 12.8176ZM14.3082 15.2678C15.5303 15.2678 16.2637 16.1202 16.2637 17.5702L16.2664 19.0511C16.2664 20.0284 15.6605 21.1715 14.3082 21.1715C12.2287 21.1715 12.2843 18.9262 12.2843 18.1784C12.2843 15.6629 13.3922 15.2678 14.3082 15.2678ZM20.6069 18.2074C20.6069 16.9473 20.5466 12.8246 25.918 12.8246C28.0741 12.8246 28.9745 13.5101 28.9745 13.5101L28.2507 15.7545C28.2507 15.7545 27.3513 15.2595 26.1798 15.2595C24.6793 15.2595 23.7216 16.1295 23.7216 17.6601L23.7233 18.7576C23.7233 20.2286 24.6473 21.2102 26.1828 21.2102C27.2501 21.2102 28.234 20.7105 28.234 20.7105L28.9558 22.9079C28.9558 22.9079 28.1327 23.5978 25.9327 23.5978C20.8184 23.5978 20.6066 19.8988 20.6066 18.2074H20.6069ZM46.4737 12.8206C49.3833 12.8206 50.7356 15.009 50.7356 18.1161C50.7356 22.0299 49.0089 23.5961 46.4721 23.5961C45.0208 23.5961 43.9479 22.9852 43.3683 21.845V23.3913L40.4215 23.3899V7.83659L43.5505 7.56379V14.4764C44.0022 13.267 45.4861 12.8206 46.4741 12.8206H46.4737ZM45.5967 15.2678C44.3746 15.2678 43.5502 16.1202 43.5502 17.5702L43.5472 19.0511C43.5452 20.0284 44.1181 21.1715 45.5967 21.1715C47.6758 21.1715 47.6206 18.9262 47.6206 18.1784C47.6206 15.6629 46.5127 15.2678 45.5967 15.2678ZM34.4035 12.8289C31.1033 12.8289 29.3612 14.6283 29.3612 17.8256V18.4199C29.3612 22.5699 31.8077 23.6384 34.7246 23.6384C37.6415 23.6384 38.8433 22.8453 38.8433 22.8453L38.2577 20.7335C38.2577 20.7335 36.7481 21.3757 35.1 21.3757C33.4519 21.3757 32.6565 20.9404 32.4679 19.2982H39.0934V17.6041C39.0934 14.1357 37.1382 12.8289 34.4035 12.8289ZM34.4831 14.9434C35.6253 14.9434 36.3658 15.6439 36.3251 17.2684H32.4739C32.5409 15.5586 33.339 14.9434 34.4835 14.9434H34.4831ZM56.9744 12.8146C53.5855 12.8146 51.8012 14.7242 51.8012 18.1467C51.8012 22.8423 54.8766 23.5984 56.9801 23.5984C60.0592 23.5984 62.1077 21.9406 62.1077 18.1894C62.1077 14.4381 59.8043 12.8146 56.9744 12.8146ZM56.9318 15.2762C58.422 15.2762 59.0126 16.3914 59.0126 17.6611V18.7526C59.0126 20.2905 58.1865 21.1799 56.9261 21.1799C55.7476 21.1799 54.9192 20.3478 54.9192 18.7526V17.6611C54.9192 15.9597 55.9048 15.2762 56.9318 15.2762ZM68.3411 12.8146C64.9523 12.8146 63.1679 14.7242 63.1679 18.1467C63.1679 22.8423 66.2433 23.5984 68.3468 23.5984C71.4259 23.5984 73.4744 21.9406 73.4744 18.1894C73.4744 14.4381 71.1711 12.8146 68.3411 12.8146ZM68.2985 15.2762C69.7887 15.2762 70.379 16.3914 70.379 17.6611V18.7526C70.379 20.2905 69.5529 21.1799 68.2928 21.1799C67.1143 21.1799 66.2859 20.3478 66.2859 18.7526V17.6611C66.2859 15.9597 67.2716 15.2762 68.2985 15.2762ZM74.6569 23.3899V7.83659L77.7949 7.56379V17.9885L80.908 13.0211H84.2219L80.9743 18.1661L84.3471 23.3903H81.0239L77.7949 18.3176V23.3903H74.6569V23.3899Z" fill="#A3B9C5"/>
</g>
<path d="M601.264 14.2588C602.127 14.2588 602.955 13.5489 603.099 12.6733C603.269 11.821 602.684 11.1114 601.822 11.1114C600.96 11.1114 600.132 11.8213 599.986 12.6733C599.817 13.5489 600.378 14.2588 601.264 14.2588ZM659.811 16.7919H661.741C662.005 16.7919 662.16 16.6859 662.22 16.4419C662.312 16.0641 662.407 15.687 662.505 15.3105C662.562 15.091 662.433 14.9246 662.186 14.9246H660.282C660.419 14.3852 660.953 12.6343 660.953 11.4929C660.953 9.21329 658.994 7.27397 656.214 7.27397C653.075 7.27397 651.033 9.35577 651.033 12.2852C651.033 13.1397 651.355 14.1355 651.755 14.7535C651.583 14.7438 651.411 14.7391 651.238 14.7391C648.853 14.7391 647.35 16.0176 647.35 17.8783C647.35 19.6245 648.744 20.3029 650.055 20.7545C651.22 21.1559 652.293 21.3424 652.293 22.2419C652.293 22.8483 651.702 23.204 650.547 23.204C649.177 23.204 648.423 22.5662 648.232 22.3243C648.362 22.2233 648.555 21.9834 648.555 21.5836C648.555 21.0241 648.157 20.5674 647.418 20.5674C646.793 20.5674 646.265 21.0709 646.133 21.7336C645.129 22.5451 644.033 23.071 642.48 23.071C640.926 23.071 640.155 22.2847 640.155 20.6114C640.514 20.7193 641.448 20.8489 642.065 20.8489C644.656 20.8489 646.422 19.6858 646.422 17.3565C646.422 16.1041 645.309 14.7888 643.108 14.7888H643.102C640.207 14.7888 638.585 16.601 637.877 18.5944C637.679 18.5472 637.48 18.5013 637.281 18.457C637.439 18.0148 637.553 17.5024 637.553 16.9344C637.553 15.95 636.936 14.7888 635.285 14.7888C634.135 14.7888 633.044 15.5332 632.288 16.6488C632.476 15.921 632.601 15.4363 632.609 15.404C632.658 15.2137 632.578 15.0017 632.277 15.0017H630.583C630.341 15.0017 630.171 15.086 630.102 15.3577C630.056 15.5389 629.474 17.7965 628.907 19.9943C628.55 21.365 626.703 23.071 624.382 23.071C622.851 23.071 622.058 22.2328 622.058 20.5589C622.458 20.7165 623.351 20.8486 623.967 20.8486C626.663 20.8486 628.324 19.6855 628.324 17.3562C628.324 16.1038 627.211 14.7884 625.009 14.7884H625.004C621.744 14.7884 619.747 17.2907 619.409 20.128C619.268 21.3075 618.261 22.9269 617.168 22.9269C616.636 22.9269 616.34 22.5967 616.34 22.0362C616.34 21.5522 616.685 20.3683 617.063 18.8844C617.189 18.3881 617.382 17.6311 617.595 16.7919H619.368C619.631 16.7919 619.786 16.6859 619.846 16.4419C619.931 16.0909 620.087 15.4782 620.13 15.3105C620.187 15.091 620.059 14.9246 619.812 14.9246H618.069C618.069 14.9246 618.871 11.7609 618.89 11.6794C618.968 11.3577 618.695 11.1721 618.41 11.2312C618.41 11.2312 617.063 11.492 616.813 11.5432C616.562 11.5936 616.367 11.7297 616.276 12.0874L615.562 14.9243H614.163C613.899 14.9243 613.744 15.0306 613.685 15.2741C613.592 15.6518 613.497 16.0289 613.4 16.4057C613.342 16.6252 613.472 16.7916 613.718 16.7916H615.091C615.081 16.8303 614.595 18.6573 614.202 20.2931C614.017 21.0797 613.397 22.9206 612.382 22.9206C611.776 22.9206 611.52 22.6184 611.52 21.9705C611.52 20.9499 612.537 18.3947 612.537 17.2354C612.537 15.6867 611.696 14.7894 609.973 14.7894C608.887 14.7894 607.762 15.4823 607.284 16.0902C607.284 16.0902 607.429 15.5923 607.478 15.4011C607.531 15.1989 607.421 15.0004 607.153 15.0004H605.469C605.111 15.0004 605.012 15.1898 604.959 15.398C604.938 15.4816 604.331 17.8364 603.748 20.0969C603.35 21.6449 602.382 22.9382 601.347 22.9382C600.814 22.9382 600.577 22.6083 600.577 22.0475C600.577 21.5632 600.894 20.3677 601.272 18.8844C601.732 17.0781 602.137 15.5908 602.18 15.4172C602.237 15.1945 602.136 15.0004 601.846 15.0004H600.152C599.845 15.0004 599.735 15.1596 599.67 15.3807C599.67 15.3807 599.194 17.1646 598.689 19.1502C598.322 20.5913 597.917 22.0592 597.917 22.7489C597.917 23.9796 598.476 24.9074 600.014 24.9074C601.2 24.9074 602.139 24.3127 602.857 23.555C602.751 23.9651 602.684 24.2246 602.677 24.251C602.615 24.4854 602.69 24.6926 602.97 24.6926H604.703C605.005 24.6926 605.121 24.5728 605.184 24.3127C605.245 24.0645 606.54 19.0313 606.54 19.0313C606.882 17.6792 607.729 16.7841 608.92 16.7841C609.484 16.7841 609.973 17.1536 609.917 17.8717C609.854 18.6617 608.889 21.4999 608.889 22.7454C608.889 23.6884 609.243 24.9081 611.039 24.9081C612.264 24.9081 613.165 24.3281 613.82 23.5795C614.06 24.374 614.696 24.9081 615.862 24.9081C617.8 24.9081 618.968 23.7723 619.655 22.6313C620.224 23.9566 621.558 24.9074 623.514 24.9074C625.47 24.9074 627.05 24.0771 628.144 22.948L627.803 24.2696C627.741 24.5077 627.846 24.6948 628.128 24.6948H629.844C630.079 24.6948 630.247 24.5769 630.307 24.3328C630.338 24.213 630.586 23.2663 630.936 21.9208C631.605 19.3461 632.682 16.6749 634.299 16.6749C634.87 16.6749 635.104 16.9901 635.104 17.4864C635.104 17.7204 635.035 17.9226 634.976 18.0311C634.192 17.8773 633.561 18.2598 633.561 19.087C633.561 19.626 634.135 20.1157 634.909 20.1157C635.501 20.1157 635.991 19.9723 636.381 19.7129C636.765 19.7912 637.148 19.8736 637.53 19.9597C637.472 20.3331 637.442 20.7102 637.44 21.0882C637.44 23.1546 638.933 24.9071 641.61 24.9071C643.708 24.9071 645.147 24.1488 646.389 23.177C646.987 24.1425 648.495 24.9228 650.473 24.9228C653.185 24.9228 654.723 23.5295 654.723 21.688C654.723 20.0211 653.338 19.4078 651.91 18.897C650.749 18.4825 649.781 18.2573 649.781 17.4464C649.781 16.7819 650.31 16.478 651.218 16.478C651.806 16.478 652.248 16.6032 652.484 16.6686C652.718 17.2477 653.202 17.8886 654.029 17.8886C654.729 17.8886 655.043 17.3417 655.043 16.8382C655.043 15.4046 652.627 15.2546 652.627 12.1801C652.627 10.2685 653.721 8.6915 655.988 8.6915C657.564 8.6915 658.592 9.67846 658.592 11.2718C658.592 12.5852 657.786 14.9237 657.786 14.9237H656.416C656.153 14.9237 655.997 15.03 655.938 15.2734C655.845 15.6512 655.75 16.0283 655.652 16.4051C655.595 16.6246 655.724 16.791 655.971 16.791H657.309C657.309 16.791 655.926 21.8318 655.926 22.7483C655.926 23.979 656.628 24.9065 658.166 24.9065C660.341 24.9065 661.701 23.5094 662.292 21.4779C662.338 21.3207 662.248 21.193 662.087 21.193H661.257C661.091 21.193 660.995 21.2864 660.953 21.4465C660.766 22.1677 660.301 22.9263 659.386 22.9263C658.854 22.9263 658.557 22.596 658.557 22.0356C658.557 21.5512 658.882 20.4174 659.281 18.8838C659.471 18.1535 659.81 16.791 659.81 16.791L659.811 16.7919ZM642.657 16.7057C643.426 16.7057 643.792 17.2115 643.792 17.8141C643.792 18.8335 642.991 19.4553 641.74 19.4553C641.292 19.4553 640.666 19.3505 640.296 19.2288C640.451 18.2912 641.138 16.7061 642.657 16.7061L642.657 16.7057ZM624.559 16.7057C625.401 16.7057 625.694 17.2115 625.694 17.8141C625.694 18.8335 624.894 19.4553 623.642 19.4553C623.194 19.4553 622.568 19.3505 622.199 19.2288C622.353 18.2912 622.962 16.7061 624.559 16.7061V16.7057ZM591.266 7.25195C585.776 7.25195 583.008 11.1413 583.008 14.3846C583.008 16.3484 583.76 18.0953 585.374 18.7463C585.639 18.8533 585.876 18.7501 585.952 18.4604C586.006 18.2601 586.132 17.7547 586.188 17.5442C586.266 17.258 586.236 17.1574 586.022 16.908C585.557 16.3657 585.26 15.6634 585.26 14.6689C585.26 11.7835 587.444 9.20039 590.948 9.20039C594.051 9.20039 595.756 11.074 595.756 13.576C595.756 16.868 594.282 19.6465 592.093 19.6465C590.884 19.6465 589.979 18.6586 590.269 17.4471C590.617 16.0006 591.29 14.4396 591.29 13.3958C591.29 12.4613 590.782 11.6816 589.731 11.6816C588.496 11.6816 587.503 12.9447 587.503 14.6368C587.503 15.7147 587.871 16.4434 587.871 16.4434C587.871 16.4434 586.607 21.7377 586.385 22.6649C585.944 24.5115 586.319 26.775 586.351 27.0037C586.369 27.1393 586.545 27.1713 586.625 27.0691C586.739 26.9222 588.211 25.1267 588.711 23.3326C588.853 22.8247 589.524 20.1944 589.524 20.1944C589.925 20.9511 591.099 21.6176 592.347 21.6176C596.061 21.6176 598.581 18.2714 598.581 13.7927C598.581 10.4059 595.678 7.25195 591.266 7.25195H591.266Z" fill="#A3B9C5"/>
<path d="M125.57 25.757C127.181 25.757 128.385 24.5676 128.385 24.5676C128.491 24.479 128.612 24.3937 128.612 24.3937C129.576 23.7586 131.138 24.2165 131.138 24.2165C131.706 24.3514 131.723 23.921 131.723 23.921L131.767 23.4337C131.808 22.9555 132.541 22.9606 132.541 22.9606C133.505 22.9225 133.911 22.5264 134.079 22.247C134.258 21.979 133.919 21.9033 133.919 21.9033C131.591 21.2512 130.462 19.0352 130.462 19.0352C129.936 18.1092 130.657 17.7352 130.657 17.7352C130.852 17.5971 131.806 17.2823 131.806 17.2823C132.593 16.9656 132.332 16.4154 132.332 16.4154C132.04 15.8244 131.358 16.2185 131.358 16.2185C131.036 16.3902 130.793 16.3759 130.793 16.3759C130.255 16.386 130.19 16.2704 130.19 16.2704L130.209 13.7066C130.209 11.3617 128.147 9.46094 125.603 9.46094H125.559C123.016 9.46094 120.954 11.3617 120.954 13.7066L120.972 16.2704C120.972 16.2704 120.908 16.386 120.369 16.3759C120.369 16.3759 120.127 16.3902 119.805 16.2185C119.805 16.2185 119.123 15.8244 118.831 16.4154C118.831 16.4154 118.569 16.9656 119.357 17.2823C119.357 17.2823 120.311 17.5975 120.506 17.7352C120.506 17.7352 121.226 18.1096 120.7 19.0352C120.7 19.0352 119.571 21.2512 117.243 21.9033C117.243 21.9033 116.904 21.979 117.084 22.247C117.251 22.5264 117.658 22.9229 118.622 22.9606C118.622 22.9606 119.354 22.9555 119.396 23.4337L119.44 23.921C119.44 23.921 119.456 24.3514 120.024 24.2165C120.024 24.2165 121.587 23.7586 122.551 24.3937C122.551 24.3937 122.671 24.4786 122.777 24.5676C122.777 24.5676 123.982 25.757 125.592 25.757H125.571H125.57Z" fill="#A3B9C5"/>
<path d="M139.13 19.1004C139.76 19.4175 141.182 19.8994 142.181 19.8994C143.258 19.8994 143.827 19.4616 143.827 18.7976C143.827 18.1336 143.335 17.8013 142.089 17.3635C140.367 16.7748 139.244 15.8386 139.244 14.3596C139.244 12.6237 140.72 11.2952 143.166 11.2952C144.334 11.2952 145.196 11.5366 145.811 11.8082L145.83 13.8434C145.415 13.647 144.135 13.1821 143.12 13.1821C142.105 13.1821 141.613 13.6351 141.613 14.1632C141.613 14.8121 142.198 15.0989 143.535 15.5973C145.366 16.2617 146.227 17.1974 146.227 18.6314C146.227 20.3371 144.889 21.8015 142.044 21.8015C140.859 21.8015 139.69 21.4844 139.106 21.1673L139.13 19.1004H139.13ZM166.345 14.3711V15.5156C166.779 14.7093 167.406 14.2417 168.757 14.2417C170.367 14.2417 171.634 15.4913 171.634 17.8463C171.634 20.5331 170.031 21.801 168.391 21.801C167.503 21.801 166.811 21.4385 166.48 20.9557L166.313 20.7396V24.8994H164.162V14.3872L166.346 14.3711H166.345ZM166.305 18.5186C166.305 18.7067 166.32 18.8792 166.352 19.0197C166.508 19.6626 167.055 20.1481 167.743 20.1481C168.774 20.1481 169.384 19.2863 169.384 17.9853C169.384 16.7633 168.837 15.8386 167.774 15.8386C167.102 15.8386 166.508 16.3402 166.352 17.0455C166.321 17.1708 166.305 17.3277 166.305 17.4686V18.5186H166.305ZM178.623 21.4655C178.217 21.6468 177.449 21.8129 176.577 21.8129C174.199 21.8129 172.679 20.4046 172.679 18.0799C172.679 15.9212 174.154 14.2458 176.893 14.2458C177.495 14.2458 178.157 14.3514 178.639 14.5326L178.627 16.2902C178.193 16.0323 177.6 15.9212 176.998 15.9212C175.637 15.9212 174.898 16.7817 174.914 17.9895C174.914 19.3478 175.669 20.0577 177.043 20.0577C177.585 20.0577 178.265 19.7956 178.611 19.6442L178.624 21.4655H178.623ZM184.404 14.2426C186.227 14.2426 186.998 15.0934 186.978 17.3181V21.6353H184.741V17.5746C184.741 16.6087 184.359 15.9442 183.501 15.9442C182.899 15.9442 182.467 16.3365 182.301 16.744C182.241 16.895 182.226 17.0914 182.226 17.2575V21.6349H180.081V10.918H182.246V15.4573C182.943 14.1692 184.404 14.2431 184.404 14.2431L184.404 14.2426ZM199.199 12.2465V14.4037H200.839V16.0658H199.199V18.7783C199.199 19.7424 199.359 20.0765 200.101 20.0765C200.417 20.0765 200.553 20.0613 200.778 20.0164L200.793 21.5904C200.492 21.7111 199.951 21.8015 199.303 21.8015C198.566 21.8015 198.017 21.5298 197.656 21.1526C197.234 20.7148 197.024 20.0054 197.024 18.9637V16.0663H195.911V14.4042H197.024V12.8655L199.199 12.246V12.2465ZM151.993 14.088C150.916 14.088 150.196 14.618 149.821 15.064V14.2256H147.553V16.1112C147.55 16.2728 147.548 16.438 147.548 16.6091V21.6358H147.553V21.6431L147.557 21.6358H149.886V17.3791C149.886 17.168 149.917 16.9565 149.978 16.8055C150.132 16.3829 150.517 15.9451 151.162 15.9451C152.008 15.9451 152.346 16.594 152.346 17.5453V21.6358H154.684V17.2584C154.684 15.0847 153.767 14.0884 151.993 14.0884V14.088ZM162.344 21.6431V17.2731C162.344 15.5372 161.573 14.088 159.12 14.088C157.917 14.088 156.984 14.3798 156.435 14.6474V16.4035C156.934 16.1053 157.979 15.7363 158.713 15.7363C159.842 15.7363 160.083 16.5077 160.083 16.9001V17.0056C157.479 16.9905 155.733 17.6201 155.733 19.5373C155.733 20.7148 156.622 21.8015 158.111 21.8015C158.984 21.8015 159.737 21.4844 160.218 20.8956H160.263L160.247 21.6353H161.95L162.343 21.6431H162.344ZM160.057 19.0339C160.057 19.1693 160.041 19.3037 160.01 19.4235C159.856 19.8879 159.375 20.2628 158.787 20.2628C158.261 20.2628 157.858 19.9783 157.858 19.3937C157.858 18.5098 158.818 18.2249 160.057 18.2405V19.0339H160.057ZM194.8 21.6431V17.2731C194.8 15.5372 194.029 14.088 191.577 14.088C190.373 14.088 189.441 14.3798 188.892 14.6474V16.4035C189.39 16.1053 190.436 15.7363 191.17 15.7363C192.299 15.7363 192.54 16.5077 192.54 16.9001V17.0056C189.936 16.9905 188.19 17.6201 188.19 19.5373C188.19 20.7148 189.078 21.8015 190.568 21.8015C191.441 21.8015 192.193 21.4844 192.675 20.8956H192.72L192.704 21.6353H194.407L194.8 21.6431H194.8ZM192.513 19.0339C192.513 19.1693 192.498 19.3037 192.467 19.4235C192.312 19.8879 191.832 20.2628 191.244 20.2628C190.717 20.2628 190.315 19.9783 190.315 19.3937C190.315 18.5098 191.275 18.2249 192.514 18.2405V19.0339H192.513Z" fill="#A3B9C5"/>
<path d="M542.354 13.4766C536.565 13.4766 536.57 19.2261 536.57 19.2261C536.57 19.2261 536.173 24.9468 542.355 24.9468C542.355 24.9468 547.506 25.2393 547.506 20.9675H544.857C544.857 20.9675 544.945 22.5762 542.443 22.5762C542.443 22.5762 539.794 22.7518 539.794 19.9727H547.595C547.595 19.9727 548.446 13.4766 542.354 13.4766ZM544.708 17.9754H539.764C539.764 17.9754 540.087 15.669 542.413 15.669C544.739 15.669 544.709 17.9754 544.709 17.9754H544.708Z" fill="#A3B9C5"/>
<path d="M475.773 16.5019C475.773 16.5019 478.07 16.3323 478.07 13.6548C478.07 10.9772 476.191 9.66992 473.811 9.66992C473.811 9.66992 473.81 9.66992 473.81 9.66992H469.428H465.976V24.6344H469.3V24.6353H473.81C473.81 24.6353 478.592 24.7849 478.592 20.2176C478.592 20.2176 478.801 16.5019 475.773 16.5019ZM473.247 12.3296H473.811C473.811 12.3296 474.876 12.3296 474.876 13.8865C474.876 15.4433 474.249 15.6686 473.54 15.6686C473.535 15.6686 473.529 15.6695 473.524 15.6695H469.429V12.3296H473.248H473.247ZM473.522 21.9756H473.466C473.404 21.9756 473.351 21.9739 473.31 21.9739C473.303 21.9739 473.297 21.9747 473.29 21.9756H469.428V17.9759H473.81V17.9742L473.811 17.975C473.811 17.975 475.397 17.9546 475.397 20.0301C475.397 21.8434 474.122 21.9722 473.522 21.9756H473.522Z" fill="#A3B9C5"/>
<path d="M484.97 13.4766C479.181 13.4766 479.186 19.2261 479.186 19.2261C479.186 19.2261 478.789 24.9468 484.97 24.9468C484.97 24.9468 490.121 25.2393 490.121 20.9675H487.472C487.472 20.9675 487.56 22.5762 485.058 22.5762C485.058 22.5762 482.409 22.7518 482.409 19.9727H490.209C490.209 19.9727 491.063 13.4766 484.97 13.4766ZM487.324 17.9754H482.379C482.379 17.9754 482.703 15.669 485.029 15.669C487.354 15.669 487.325 17.9754 487.325 17.9754H487.324Z" fill="#A3B9C5"/>
<path d="M487.943 10.5508H481.732V12.3938H487.943V10.5508Z" fill="#A3B9C5"/>
<path d="M501.482 17.1651V17.0185H501.48C501.422 15.2392 500.324 13.4775 497.803 13.4775C495.883 13.4775 494.852 14.684 494.447 15.3077V9.66992H491.387V24.6272H494.447V18.5685C494.447 17.2523 494.771 15.8765 496.537 15.8765C498.442 15.8765 498.442 17.018 498.442 17.018V17.0172H498.443V17.64L498.481 17.6489V24.6272H501.483V17.1677C501.483 17.1677 501.483 17.1668 501.483 17.1664C501.483 17.166 501.483 17.1656 501.483 17.1651H501.482Z" fill="#A3B9C5"/>
<path d="M532.921 20.3926C532.921 20.3926 532.999 22.6092 530.926 22.6092C528.853 22.6092 528.305 20.4006 528.305 19.1337C528.305 17.8668 528.735 15.7267 530.965 15.7267C533.195 15.7267 533.116 17.6317 533.116 17.6317H535.894C535.894 17.6317 536.089 13.4785 531.004 13.4785C525.92 13.4785 525.372 17.5722 525.372 19.2153C525.372 20.8585 526.233 25.0066 530.927 25.0066C535.62 25.0057 536.089 21.2475 536.089 20.3921H532.921L532.921 20.3926Z" fill="#A3B9C5"/>
<path d="M524.244 17.1642V17.0175H524.241C524.184 15.2383 523.084 13.4766 520.565 13.4766C518.643 13.4766 517.612 14.6844 517.208 15.3081V13.6368H514.147V24.6267H517.208V18.6875C517.208 18.6543 517.209 18.6148 517.209 18.568C517.209 17.2518 517.532 15.876 519.298 15.876C521.203 15.876 521.203 17.0175 521.203 17.0175V17.6395L521.242 17.6489V24.6271H524.244V17.1676C524.244 17.1676 524.244 17.1668 524.244 17.1663C524.244 17.1659 524.244 17.1655 524.244 17.1651L524.244 17.1642Z" fill="#A3B9C5"/>
<path d="M512.554 22.5599V16.1514C512.554 16.1514 512.916 13.4785 508.071 13.4785C503.227 13.4785 502.916 15.892 502.89 17.3341H506.129C506.129 17.3341 505.999 15.4274 508.046 15.4274C508.046 15.4274 509.782 15.29 509.782 17.0195C509.782 17.0195 509.782 18.1563 508.202 18.2596C506.621 18.3629 502.606 18.3379 502.606 21.5821C502.606 21.5821 502.502 25.007 506.194 25.007C506.194 25.007 508.72 25.0585 509.782 23.5131V24.6278H513.123C513.123 24.6278 512.554 24.337 512.554 22.5603V22.5599ZM507.294 22.8949C507.294 22.8949 505.481 22.9732 505.481 21.4273C505.481 21.4273 505.325 20.2425 507.865 19.8565C508.875 19.7791 509.341 19.7098 509.756 19.2426V21.2471C509.756 21.2471 509.496 22.8954 507.294 22.8954L507.294 22.8949Z" fill="#A3B9C5"/>
<path d="M375.388 15.3362C376.297 15.3362 377.035 14.5984 377.035 13.6881C377.035 12.7778 376.298 12.04 375.388 12.04C374.477 12.04 373.74 12.7778 373.74 13.6881C373.74 14.5984 374.477 15.3362 375.388 15.3362ZM429.765 20.9673C429.514 20.7911 429.321 20.7618 429.16 21.1041C426.393 27.098 421.729 24.107 422.193 24.3701C423.227 23.897 425.948 21.715 425.537 18.7023C425.287 16.8611 423.707 16.0444 422.029 16.3368C419.101 16.8471 418.024 20.0052 418.572 22.8012C418.668 23.2813 418.84 23.6774 419.011 24.0653C415.703 26.756 414.389 21.6568 414.239 21.0472C414.233 21.0147 416.794 18.8802 417.506 13.7944C418.253 8.46386 416.552 7.49315 414.814 7.52337C411.596 7.57937 410.726 14.3021 411.894 19.9053C411.796 19.9308 411.341 20.1831 410.61 20.2114C410.083 18.5547 407.834 17.1029 407.245 17.6623C405.772 19.0619 407.602 21.7984 408.891 22.0128C408.117 26.7789 403.277 25.5985 404.178 19.6272C405.754 16.7008 406.953 12.3493 406.739 9.72219C406.663 8.7922 405.976 7.54596 404.42 7.608C401.429 7.72636 401.104 14.451 401.455 19.2238C401.437 19.1064 401.271 19.8038 400.045 20.1503C399.756 18.541 397.164 16.9257 396.554 17.7023C395.412 19.156 397.391 21.7475 398.329 21.9285C397.555 26.6946 392.716 25.5142 393.616 19.5429C395.192 16.6165 396.391 12.2649 396.177 9.6382C396.101 8.70789 395.414 7.46197 393.858 7.52369C390.867 7.64205 390.542 14.3667 390.893 19.1398C390.875 19.0205 390.705 19.7408 389.429 20.0819C389.387 17.9941 386.786 17.0364 386.161 17.7027C385.048 18.89 386.416 21.3268 387.682 21.9288C386.908 26.6949 382.069 25.5145 382.97 19.5432C384.546 16.6168 385.744 12.2653 385.53 9.63852C385.455 8.70821 384.767 7.46229 383.212 7.52401C380.221 7.64237 379.98 14.7053 380.331 19.478C379.346 23.6991 376.042 28.9704 376.471 18.4109C376.513 17.6702 376.56 17.389 376.19 17.1115C375.913 16.8961 375.284 16.9998 374.94 17.0081C374.522 17.025 374.417 17.2693 374.325 17.6393C374.109 18.5942 374.071 19.5197 374.04 20.7825C374.02 21.3733 373.973 21.6488 373.745 22.4544C373.518 23.2597 372.222 24.7318 371.512 24.4856C370.527 24.147 370.851 21.3676 371.035 19.458C371.189 17.9489 370.697 17.2712 369.435 17.0247C368.697 16.8707 368.248 16.8942 367.479 16.6521C366.752 16.423 366.587 15.0473 365.036 15.5058C364.188 15.7568 364.734 17.5541 364.53 18.8865C363.527 25.4401 361.442 25.6201 360.474 22.4366C364.832 11.7623 361.734 7.55455 359.921 7.55455C358.108 7.55455 355.874 8.8552 356.788 17.1777C356.344 17.0479 356.207 16.9782 355.72 16.9782C352.969 16.9782 351.094 19.2028 351.094 21.9466C351.094 24.6905 352.969 26.9154 355.721 26.9154C357.345 26.9154 358.485 26.1766 359.349 25.0338C359.913 25.8409 360.599 26.9278 361.854 26.8788C365.594 26.7331 366.682 19.0603 366.811 18.6323C367.211 18.6941 367.589 18.8105 367.958 18.8722C368.574 18.9645 368.618 19.2082 368.604 19.827C368.441 25.0455 369.404 26.8727 371.589 26.8727C372.806 26.8727 373.891 25.6771 374.638 24.8219C375.196 25.9739 376.085 26.8374 377.278 26.8724C380.17 26.9443 381.276 22.3364 381.176 22.9428C381.096 23.4188 382.113 26.8467 385.09 26.8591C388.777 26.8746 389.462 22.8203 389.544 22.141C389.554 22.0058 389.558 22.0198 389.544 22.141L389.541 22.1821C390.712 21.9644 391.315 21.3367 391.315 21.3367C391.315 21.3367 392.255 26.9217 395.737 26.8591C399.352 26.7935 400.034 23.1286 400.123 22.414C400.135 22.2444 400.142 22.2642 400.123 22.414C400.122 22.421 400.122 22.428 400.122 22.435C401.512 21.9291 401.878 21.4217 401.878 21.4217C401.878 21.4217 402.625 26.8956 406.299 26.9437C409.573 26.9866 410.787 23.6335 410.794 22.2301C411.346 22.2362 412.367 21.9024 412.343 21.8836C412.343 21.8836 413.543 26.6698 416.892 26.9157C418.464 27.0312 419.644 26.0309 420.316 25.5746C421.897 26.8543 427.159 28.489 430.481 22.8556C430.95 22.0472 429.942 21.092 429.765 20.9673H429.765ZM355.588 25.057C353.983 25.057 352.953 23.5724 352.953 21.9721C352.953 20.3717 353.898 18.8872 355.503 18.8872C356.226 18.8872 356.628 18.9667 357.19 19.4561C357.292 19.8582 357.582 20.7857 357.722 21.2066C357.911 21.7701 358.135 22.2498 358.361 22.7719C358.038 24.1111 356.979 25.057 355.588 25.057ZM359.5 19.5028C359.433 19.3966 359.447 19.4618 359.373 19.3612C359.078 18.5607 358.511 16.7739 358.445 14.7444C358.371 12.4485 358.754 9.75751 359.882 9.75751C360.646 9.75751 361.459 15.2114 359.5 19.5028H359.5ZM382.105 17.1106C381.924 15.7482 381.914 9.67479 383.372 9.84182C384.177 10.1679 382.862 15.899 382.105 17.1106ZM392.752 17.1106C392.571 15.7482 392.561 9.67479 394.019 9.84182C394.824 10.1679 393.509 15.899 392.752 17.1106ZM403.314 17.1952C403.133 15.8325 403.123 9.7591 404.581 9.92645C405.386 10.2526 404.071 15.9839 403.314 17.1952ZM414.975 9.48644C416.308 9.34835 416.253 15.1695 413.577 18.8449C413.232 17.5165 412.703 9.94268 414.975 9.48644ZM420.577 22.0128C420.149 19.8499 421.256 18.4297 422.396 18.2738C422.795 18.2101 423.372 18.4685 423.488 18.9511C423.677 19.8611 423.46 21.2107 420.908 22.9231C420.911 22.9377 420.673 22.4945 420.578 22.0128H420.577Z" fill="#A3B9C5"/>
<path d="M247.507 4.29688C240.675 4.29688 235.137 9.83508 235.137 16.6666C235.137 23.4981 240.675 29.0368 247.507 29.0368C254.339 29.0368 259.877 23.4989 259.877 16.6666C259.877 9.83423 254.339 4.29747 247.507 4.29747L247.507 4.29688ZM253.18 22.1376C252.958 22.502 252.483 22.6162 252.12 22.3942C249.215 20.6188 245.559 20.2178 241.253 21.2014C240.838 21.2965 240.424 21.0364 240.33 20.6216C240.235 20.2067 240.494 19.7931 240.91 19.6986C245.622 18.6213 249.664 19.0849 252.924 21.0773C253.287 21.3003 253.403 21.7745 253.18 22.1378L253.18 22.1376H253.18ZM254.694 18.7699C254.414 19.2238 253.82 19.3662 253.367 19.0874C250.043 17.044 244.974 16.4521 241.041 17.6459C240.531 17.8 239.992 17.5126 239.837 17.0034C239.684 16.4934 239.971 15.9557 240.481 15.8006C244.973 14.4375 250.558 15.0979 254.376 17.4442C254.83 17.7233 254.973 18.3172 254.694 18.7701L254.694 18.7699ZM254.824 15.2626C250.836 12.8947 244.259 12.6769 240.453 13.8322C239.842 14.0175 239.195 13.6725 239.01 13.0613C238.825 12.4498 239.17 11.8038 239.781 11.618C244.151 10.2916 251.415 10.5478 256.005 13.2726C256.554 13.599 256.735 14.309 256.409 14.8581C256.084 15.4079 255.372 15.5891 254.824 15.2626H254.824ZM268.791 15.7164C266.656 15.2071 266.275 14.8496 266.275 14.0985C266.275 13.3889 266.944 12.9113 267.937 12.9113C268.931 12.9113 269.855 13.2739 270.856 14.0205C270.887 14.0431 270.925 14.0521 270.962 14.0461C270.999 14.0405 271.032 14.02 271.054 13.9892L272.097 12.5191C272.14 12.4585 272.128 12.3751 272.07 12.3289C270.879 11.3727 269.537 10.9079 267.969 10.9079C265.663 10.9079 264.052 12.2918 264.052 14.2719C264.052 16.3952 265.441 17.1471 267.842 17.7274C269.886 18.1981 270.231 18.5926 270.231 19.2975C270.231 20.0788 269.534 20.5645 268.411 20.5645C267.164 20.5645 266.148 20.1446 265.01 19.1594C264.982 19.135 264.943 19.124 264.907 19.1261C264.87 19.1292 264.835 19.1466 264.811 19.1754L263.642 20.567C263.593 20.6248 263.599 20.711 263.656 20.761C264.979 21.9425 266.607 22.5666 268.364 22.5666C270.849 22.5666 272.455 21.2088 272.455 19.1074C272.459 17.3333 271.397 16.3511 268.796 15.7183L268.791 15.7163L268.791 15.7164ZM278.077 13.61C277 13.61 276.116 14.0342 275.388 14.9036V13.9251C275.388 13.8479 275.325 13.7849 275.248 13.7849H273.335C273.258 13.7849 273.196 13.8479 273.196 13.9251V24.797C273.196 24.8742 273.258 24.9372 273.335 24.9372H275.248C275.325 24.9372 275.388 24.8743 275.388 24.797V21.3652C276.116 22.1829 277 22.5825 278.077 22.5825C280.078 22.5825 282.104 21.0419 282.104 18.0968C282.107 15.151 280.08 13.6098 278.079 13.6098L278.077 13.61ZM279.88 18.0968C279.88 19.5965 278.956 20.6431 277.634 20.6431C276.311 20.6431 275.339 19.549 275.339 18.0968C275.339 16.6445 276.326 15.5505 277.634 15.5505C278.935 15.5504 279.88 16.621 279.88 18.0967L279.88 18.0968V18.0968ZM287.297 13.61C284.719 13.61 282.7 15.5947 282.7 18.1288C282.7 20.663 284.705 22.5992 287.265 22.5992C289.825 22.5992 291.877 20.6212 291.877 18.0968C291.877 15.5723 289.865 13.6103 287.297 13.6103L287.297 13.61H287.297ZM287.297 20.6579C285.926 20.6579 284.892 19.5564 284.892 18.096C284.892 16.6356 285.89 15.5651 287.265 15.5651C288.64 15.5651 289.685 16.6666 289.685 18.1281C289.685 19.5895 288.681 20.6579 287.297 20.6579H287.297H287.297ZM297.381 13.7849H295.277V11.6333C295.277 11.5561 295.214 11.4933 295.137 11.4933H293.225C293.147 11.4933 293.085 11.5562 293.085 11.6333V13.7849H292.165C292.088 13.7849 292.026 13.8478 292.026 13.9251V15.5687C292.026 15.6458 292.088 15.7089 292.165 15.7089H293.085V19.9616C293.085 21.6803 293.94 22.5516 295.627 22.5516C296.313 22.5516 296.882 22.41 297.419 22.1058C297.462 22.0814 297.489 22.0345 297.489 21.9845V20.4194C297.489 20.3711 297.464 20.3254 297.423 20.3002C297.381 20.274 297.329 20.2728 297.286 20.2939C296.918 20.4792 296.562 20.5647 296.164 20.5647C295.55 20.5647 295.277 20.2862 295.277 19.6617V15.7096H297.381C297.458 15.7096 297.52 15.6466 297.52 15.5694V13.9259C297.523 13.8486 297.461 13.7857 297.383 13.7857L297.381 13.7847L297.381 13.7849ZM304.713 13.7933V13.5291C304.713 12.7517 305.012 12.4049 305.68 12.4049C306.079 12.4049 306.399 12.4841 306.758 12.6037C306.802 12.6176 306.848 12.6106 306.884 12.5842C306.921 12.5578 306.942 12.5153 306.942 12.4704V10.8589C306.942 10.7973 306.902 10.7429 306.843 10.7246C306.464 10.612 305.979 10.4963 305.253 10.4963C303.487 10.4963 302.553 11.491 302.553 13.3718V13.7766H301.634C301.557 13.7766 301.494 13.8395 301.494 13.9166V15.5686C301.494 15.6457 301.557 15.7088 301.634 15.7088H302.553V22.2686C302.553 22.3458 302.615 22.4088 302.692 22.4088H304.605C304.682 22.4088 304.745 22.3458 304.745 22.2686V15.7093H306.531L309.266 22.2674C308.955 22.9565 308.65 23.0936 308.233 23.0936C307.896 23.0936 307.541 22.993 307.179 22.7944C307.145 22.7757 307.104 22.7726 307.067 22.784C307.031 22.7968 307 22.824 306.985 22.8594L306.336 24.2814C306.306 24.3486 306.332 24.4275 306.397 24.4624C307.073 24.8289 307.684 24.9853 308.439 24.9853C309.851 24.9853 310.632 24.3275 311.32 22.5579L314.638 13.9847C314.654 13.9416 314.649 13.8928 314.623 13.8545C314.597 13.8166 314.554 13.7937 314.508 13.7937H312.517C312.457 13.7937 312.404 13.8317 312.384 13.8876L310.345 19.7131L308.111 13.8837C308.091 13.8296 308.038 13.7936 307.981 13.7936H304.713L304.714 13.7932L304.713 13.7933ZM300.462 13.7849H298.55C298.473 13.7849 298.41 13.8478 298.41 13.9251V22.2687C298.41 22.3459 298.473 22.4089 298.55 22.4089H300.462C300.539 22.4089 300.603 22.3459 300.603 22.2687V13.9257C300.603 13.8485 300.54 13.7857 300.463 13.7855C300.463 13.7855 300.463 13.7855 300.462 13.7855L300.462 13.7849H300.462ZM299.517 9.98591C298.759 9.98591 298.145 10.5992 298.145 11.3569C298.145 12.1145 298.759 12.729 299.517 12.729C300.274 12.729 300.889 12.1149 300.889 11.3569C300.889 10.5988 300.274 9.98591 299.518 9.98591H299.517Z" fill="#A3B9C5"/>
<defs>
<clipPath id="clip0_115_2596">
<rect width="83.2727" height="16.1169" fill="white" transform="translate(1.07446 7.52148)"/>
</clipPath>
</defs>
</svg>
